<?xml version="1.0" standalone="no"?>
<!DOCTYPE svg PUBLIC "-//W3C//DTD SVG 20010904//EN"
 "http://www.w3.org/TR/2001/REC-SVG-20010904/DTD/svg10.dtd">
<svg version="1.0" xmlns="http://www.w3.org/2000/svg"
 width="700.000000pt" height="700.000000pt" viewBox="0 0 700.000000 700.000000"
 preserveAspectRatio="xMidYMid meet">
<metadata>
Created by potrace 1.14, written by Peter Selinger 2001-2017
</metadata>
<g transform="translate(0.000000,700.000000) scale(0.100000,-0.100000)"
fill="#000000" stroke="none">
<path d="M3510 6612 c-25 -1 -52 -5 -60 -9 -32 -13 -51 -13 -45 -1 4 7 0 5 -8
-5 -9 -11 -21 -15 -32 -10 -14 5 -16 3 -10 -7 6 -10 2 -12 -18 -8 -15 3 -24 1
-21 -3 3 -5 -7 -11 -21 -15 -14 -3 -25 -10 -25 -15 0 -5 -7 -5 -17 -2 -10 4
-14 2 -9 -5 3 -6 2 -13 -4 -17 -5 -3 -10 0 -10 7 -1 9 -5 7 -14 -5 -8 -11 -20
-15 -32 -11 -14 4 -15 3 -5 -4 9 -7 10 -12 2 -16 -6 -4 -11 -4 -11 -1 0 6 -16
-6 -51 -37 -10 -10 -24 -18 -30 -18 -5 0 -7 -4 -4 -10 6 -9 -8 -14 -28 -11 -4
0 -6 -2 -6 -6 4 -22 -2 -33 -13 -27 -7 5 -9 2 -5 -9 4 -11 2 -14 -9 -10 -9 3
-14 0 -12 -8 2 -8 -3 -13 -10 -11 -8 1 -11 -2 -7 -8 3 -5 -1 -13 -9 -16 -9 -3
-14 -10 -11 -14 3 -4 -2 -11 -11 -14 -8 -3 -12 -10 -9 -16 3 -6 -1 -13 -9 -16
-9 -3 -13 -10 -10 -15 3 -5 -3 -9 -13 -9 -11 0 -14 -3 -7 -8 7 -5 7 -14 -1
-29 -7 -13 -14 -21 -16 -18 -3 2 -6 -5 -6 -17 -1 -12 -7 -24 -14 -28 -6 -4 -8
-13 -5 -19 4 -6 2 -11 -4 -11 -6 0 -9 -4 -5 -9 3 -5 1 -12 -4 -16 -5 -3 -10
-13 -10 -23 -3 -54 -6 -72 -14 -72 -5 0 -7 -9 -4 -20 3 -11 0 -20 -6 -20 -7 0
-5 -5 3 -10 13 -9 13 -10 0 -10 -13 0 -13 -1 0 -10 8 -5 10 -10 4 -10 -13 0
-13 -122 1 -132 6 -5 4 -8 -5 -8 -13 0 -13 -1 0 -10 11 -7 11 -10 2 -10 -7 0
-10 -5 -7 -10 4 -6 12 -7 18 -3 7 3 3 -4 -7 -16 -17 -18 -17 -21 -3 -15 10 3
17 1 17 -5 0 -6 -5 -11 -11 -11 -6 0 -4 -7 4 -15 9 -8 13 -24 10 -35 -3 -11 0
-20 6 -20 6 0 11 -11 11 -25 0 -14 6 -25 13 -25 9 0 9 -2 -1 -9 -11 -7 -11 -9
2 -14 9 -4 13 -14 11 -27 -2 -11 0 -18 4 -16 4 3 14 -7 21 -22 7 -15 17 -35
22 -46 7 -12 6 -16 -1 -11 -6 3 -11 3 -11 -2 0 -4 -11 -9 -25 -9 -14 -1 -23 1
-21 5 3 4 -4 7 -15 7 -10 0 -19 -4 -19 -9 0 -4 -6 -5 -12 -1 -19 12 -48 12
-48 0 0 -6 -5 -4 -10 4 -5 8 -10 10 -10 4 0 -12 -29 -12 -48 0 -6 4 -12 4 -12
-1 0 -4 -35 -8 -77 -7 -44 0 -81 -5 -85 -10 -5 -7 -11 -6 -18 4 -8 13 -10 12
-10 -2 0 -10 -5 -18 -11 -18 -5 0 -7 5 -3 11 4 8 1 8 -12 2 -11 -5 -36 -9 -57
-8 -21 0 -41 -3 -43 -7 -8 -13 -26 -9 -19 5 4 6 1 5 -7 -3 -7 -8 -32 -16 -56
-16 -23 -1 -49 -7 -57 -14 -8 -7 -26 -10 -40 -6 -15 4 -25 2 -25 -4 0 -6 -4
-8 -10 -5 -5 3 -10 1 -10 -5 0 -6 -4 -8 -10 -5 -5 3 -10 2 -10 -4 0 -7 -8 -7
-22 -2 -26 9 -51 4 -42 -10 3 -5 -6 -10 -20 -10 -48 -3 -51 -4 -58 -13 -3 -5
-17 -11 -29 -13 -13 -2 -26 -7 -29 -12 -3 -4 -13 -7 -22 -5 -10 1 -18 -2 -18
-7 0 -6 -5 -7 -10 -4 -6 3 -13 -1 -16 -10 -5 -11 -10 -13 -19 -5 -9 8 -14 6
-19 -5 -3 -9 -10 -13 -16 -10 -5 3 -10 1 -10 -5 0 -6 -4 -8 -10 -5 -5 3 -10 1
-10 -5 0 -7 -7 -10 -15 -6 -8 3 -15 1 -15 -4 0 -12 -69 -44 -88 -41 -7 1 -16
-8 -22 -21 -5 -13 -9 -17 -9 -10 -1 11 -4 11 -16 0 -37 -33 -46 -39 -57 -32
-7 5 -8 3 -3 -6 6 -10 4 -12 -10 -6 -16 6 -16 4 -4 -11 12 -15 12 -16 -4 -10
-11 4 -20 1 -23 -8 -4 -8 -10 -12 -15 -9 -5 3 -9 -2 -9 -11 0 -9 -4 -14 -9
-10 -6 3 -14 -3 -20 -12 -6 -10 -11 -14 -11 -10 0 11 -17 -5 -114 -100 -46
-46 -91 -94 -100 -108 -10 -15 -22 -23 -28 -19 -8 5 -9 1 -5 -10 4 -10 1 -19
-8 -22 -8 -4 -12 -10 -9 -15 3 -5 -3 -9 -12 -9 -10 0 -14 -3 -11 -6 4 -4 -3
-15 -14 -25 -11 -9 -20 -21 -20 -26 1 -4 -5 -15 -13 -25 -8 -9 -12 -19 -9 -22
4 -3 1 -6 -6 -6 -7 0 -10 -4 -7 -9 3 -5 -1 -12 -10 -15 -8 -3 -12 -10 -9 -16
3 -5 1 -10 -4 -10 -6 0 -10 -3 -10 -7 1 -5 1 -15 0 -23 -1 -13 -2 -13 -11 0
-9 13 -10 13 -11 0 -1 -8 -1 -21 0 -27 1 -7 -3 -13 -9 -13 -6 0 -9 -4 -5 -9 3
-5 1 -12 -5 -16 -6 -4 -8 -10 -5 -15 3 -4 -2 -11 -11 -14 -8 -3 -13 -10 -10
-15 4 -5 0 -15 -7 -23 -8 -7 -13 -21 -11 -30 1 -10 -3 -15 -12 -11 -9 3 -12
-2 -9 -16 2 -12 -1 -21 -6 -21 -6 0 -8 -4 -5 -9 3 -5 0 -11 -8 -14 -9 -3 -12
-15 -9 -31 3 -16 1 -26 -6 -26 -7 0 -9 -4 -6 -10 3 -5 1 -10 -5 -10 -6 0 -8
-5 -5 -10 4 -6 2 -17 -4 -24 -7 -8 -13 -27 -14 -44 -1 -17 -6 -30 -12 -29 -5
1 -9 -4 -7 -12 1 -7 -3 -20 -10 -29 -10 -12 -10 -14 -1 -8 9 5 11 2 7 -8 -3
-9 -9 -16 -13 -16 -4 0 -7 -16 -6 -36 0 -19 -3 -38 -9 -41 -5 -4 -6 0 -1 8 5
8 4 11 0 6 -5 -4 -10 -22 -11 -40 0 -17 -2 -33 -4 -34 -4 -4 -7 -20 -9 -39 0
-8 -6 -12 -12 -8 -8 5 -8 1 0 -13 7 -14 7 -23 -1 -31 -7 -7 -8 -12 -4 -12 5 0
3 -7 -4 -15 -7 -9 -10 -18 -6 -22 3 -3 6 -1 6 5 0 7 5 12 12 12 6 0 4 -8 -7
-20 -9 -10 -15 -26 -12 -35 4 -8 1 -15 -5 -15 -7 0 -6 -5 2 -15 9 -10 9 -15 1
-15 -6 0 -10 -3 -10 -7 1 -5 0 -10 -1 -13 -3 -8 -9 -69 -13 -135 -3 -33 -8
-69 -13 -80 -6 -16 -5 -18 7 -10 8 6 6 2 -4 -7 -13 -13 -15 -18 -6 -18 9 0 10
-3 4 -8 -6 -4 -10 -70 -10 -165 0 -88 -3 -161 -8 -164 -4 -2 -3 -12 2 -21 5
-9 7 -27 5 -39 -2 -12 1 -25 7 -28 7 -5 6 -12 -2 -22 -10 -12 -10 -16 2 -24 8
-5 9 -9 3 -9 -11 0 -12 -75 -1 -86 3 -3 2 -16 -3 -29 -5 -13 -5 -26 1 -32 5
-5 11 -32 13 -60 2 -28 6 -56 10 -61 3 -6 0 -13 -6 -15 -7 -3 -3 -6 9 -6 12
-1 25 -6 28 -11 4 -7 12 -7 25 0 13 7 19 6 23 -3 3 -8 19 -13 38 -12 19 1 43
-6 53 -14 17 -14 18 -14 11 -1 -7 12 -6 13 6 4 8 -7 25 -11 39 -10 14 1 33 -2
43 -6 11 -6 17 -5 17 2 0 6 5 8 11 5 6 -4 8 -14 5 -22 -4 -9 -2 -11 7 -6 19
12 37 12 37 1 0 -7 5 -7 13 1 8 6 17 8 20 4 10 -9 67 -10 67 0 0 4 8 3 18 -2
38 -21 126 -31 177 -21 6 1 15 1 20 0 6 -2 42 -3 81 -4 42 -1 77 -6 87 -14 12
-10 17 -10 23 -1 4 7 3 9 -4 5 -6 -3 -13 -2 -16 3 -7 10 13 9 31 -2 6 -4 14
-1 16 5 3 7 6 4 6 -6 1 -20 1 -20 17 0 8 10 13 13 9 7 -3 -7 -1 -13 4 -13 6 0
11 4 11 9 0 5 45 8 99 7 60 -1 97 2 94 8 -3 5 -1 6 5 2 22 -13 94 -12 99 1 4
10 9 11 19 2 11 -9 14 -9 14 0 0 7 4 9 10 6 5 -3 18 -1 29 5 13 7 22 7 26 0 4
-7 12 -7 25 0 13 7 20 6 22 -1 3 -8 10 -6 20 5 19 18 33 22 22 5 -3 -6 5 -3
20 6 24 16 26 16 20 1 -4 -10 -1 -16 7 -16 7 0 9 -3 6 -6 -3 -4 -1 -16 5 -28
7 -11 13 -31 13 -43 1 -12 8 -30 16 -40 11 -13 11 -15 1 -9 -11 7 -11 4 -1
-12 7 -12 18 -18 24 -14 5 3 3 -3 -5 -13 -9 -11 -10 -16 -2 -11 8 5 12 -1 12
-19 0 -17 4 -24 12 -19 8 5 9 2 5 -9 -4 -10 0 -20 11 -26 10 -7 12 -11 4 -11
-8 0 -6 -8 8 -22 11 -12 20 -30 20 -40 0 -10 5 -18 11 -18 6 0 9 -6 6 -13 -3
-7 4 -19 15 -26 13 -8 18 -19 15 -32 -3 -11 0 -19 8 -19 7 0 16 -7 19 -16 4
-10 2 -13 -7 -8 -6 4 -2 -3 11 -15 12 -12 20 -26 17 -31 -3 -4 2 -11 11 -14 8
-3 12 -10 9 -16 -3 -5 1 -10 11 -10 14 0 15 -2 3 -17 -7 -10 -10 -15 -5 -11
10 8 36 -15 36 -31 0 -6 4 -11 10 -11 5 0 9 -3 9 -7 -3 -20 2 -34 11 -28 6 3
10 1 10 -6 0 -6 8 -18 18 -26 9 -8 11 -11 4 -8 -20 11 3 -31 24 -43 8 -5 16
-16 18 -25 1 -9 6 -20 11 -24 4 -4 5 -1 1 7 -4 8 -1 6 8 -4 8 -10 13 -23 9
-29 -3 -6 -1 -7 5 -3 6 4 18 -6 27 -24 8 -16 18 -30 21 -30 3 0 2 5 -2 12 -4
7 -3 8 4 4 6 -4 8 -14 5 -23 -4 -11 -3 -14 5 -9 7 4 12 1 12 -8 0 -9 5 -16 10
-16 6 0 10 -7 10 -15 0 -8 8 -15 17 -15 9 0 14 -3 10 -6 -3 -3 8 -19 25 -34
20 -18 28 -33 23 -42 -5 -7 -5 -10 -1 -6 7 6 76 -54 76 -66 0 -9 81 -86 91
-86 5 0 9 -4 9 -9 0 -16 132 -141 143 -134 6 3 7 1 3 -5 -4 -7 -2 -12 4 -12 6
0 8 -4 5 -10 -3 -5 1 -10 9 -10 9 0 16 -7 16 -15 0 -8 4 -15 10 -15 5 0 20
-11 33 -24 14 -14 28 -22 31 -19 3 3 8 -2 12 -11 3 -9 13 -16 21 -16 8 0 11
-4 8 -10 -3 -5 1 -10 9 -10 9 0 16 -8 17 -17 0 -12 2 -14 6 -5 4 10 9 7 17
-10 6 -12 22 -24 34 -26 12 -2 20 -8 17 -13 -4 -5 1 -9 10 -9 9 0 14 -4 11 -9
-3 -5 8 -14 24 -21 16 -7 27 -16 24 -21 -5 -8 9 -13 29 -10 4 0 7 -4 7 -9 0
-6 7 -10 16 -10 10 0 14 -6 11 -14 -4 -9 0 -13 11 -12 9 2 23 -3 30 -11 8 -7
18 -11 23 -8 5 4 9 0 9 -7 0 -7 10 -2 21 12 11 14 18 19 14 13 -4 -9 -1 -11 9
-7 9 3 13 10 10 15 -3 5 0 9 6 9 7 0 21 10 32 22 11 13 17 16 13 8 -3 -8 2 -5
11 7 9 13 25 23 35 23 11 0 18 4 16 8 -1 5 14 22 33 38 21 17 29 21 20 9 -14
-19 -14 -19 3 -6 10 8 15 21 12 29 -4 12 -3 13 10 2 9 -8 15 -9 15 -2 0 6 14
25 32 41 24 22 35 27 41 18 6 -8 7 -7 4 4 -3 8 7 26 21 40 14 13 22 18 18 11
-4 -6 -2 -12 3 -12 6 0 11 9 11 20 0 11 6 20 14 20 8 0 17 7 20 16 3 9 11 12
18 8 8 -5 9 -2 5 10 -5 14 -3 17 8 12 8 -3 15 -1 15 5 0 6 7 17 15 25 8 9 15
13 15 10 0 -3 20 13 44 36 24 24 42 46 40 50 -3 5 -1 8 5 8 17 0 51 42 44 54
-4 6 1 5 11 -3 9 -8 16 -10 15 -5 -4 21 2 35 11 29 6 -3 10 4 10 15 0 15 5 20
14 17 9 -4 17 2 21 14 4 10 11 19 16 19 6 0 7 4 4 10 -3 5 0 10 8 10 8 0 18 7
21 16 3 9 11 12 18 8 10 -6 10 -5 0 8 -10 12 -9 18 3 28 12 10 15 10 15 -1 0
-8 9 5 21 28 11 23 29 45 40 48 11 4 17 11 14 16 -4 5 -1 9 4 9 6 0 11 5 11
10 0 6 9 20 20 33 43 48 50 57 43 57 -5 0 0 5 10 11 9 5 17 17 17 25 0 8 5 12
10 9 6 -3 10 -1 10 5 0 7 10 26 22 43 13 18 23 35 23 39 0 4 9 14 20 22 11 9
16 16 11 16 -6 0 -1 7 10 16 10 8 12 13 4 9 -8 -4 -5 3 8 14 13 11 23 22 22
25 -1 21 1 26 9 21 6 -3 8 4 6 15 -2 11 0 18 5 15 4 -3 13 9 19 26 6 18 19 38
28 45 12 9 14 13 5 14 -10 0 -9 4 2 16 9 8 13 21 9 27 -5 9 -3 9 8 0 12 -10
15 -8 17 8 1 10 3 28 4 38 1 11 6 17 10 15 4 -3 8 0 8 6 0 6 5 8 13 4 8 -5 8
-2 -2 9 -11 13 -11 17 -1 17 8 0 10 3 7 7 -4 3 -1 13 7 22 14 16 16 20 16 42
0 5 4 7 10 4 6 -3 7 1 4 10 -4 9 2 25 11 35 10 11 14 20 9 20 -5 0 -2 5 6 10
9 6 11 10 3 10 -7 0 -10 7 -7 15 4 8 9 13 13 10 4 -2 8 1 8 8 0 7 4 21 9 31 6
15 4 18 -7 12 -8 -4 -3 2 10 13 27 24 39 26 64 7 13 -10 27 -12 48 -6 17 5 29
5 29 -1 0 -5 5 -9 11 -9 5 0 7 5 3 11 -4 8 -1 8 13 1 11 -6 28 -9 39 -8 10 2
24 0 29 -4 15 -12 58 -16 73 -7 6 5 12 5 12 0 0 -4 53 -8 117 -7 65 0 125 -3
134 -7 9 -5 19 -5 23 -2 12 12 36 12 29 0 -5 -9 -3 -9 8 -1 8 7 43 11 82 10
37 -1 67 2 67 6 0 5 8 5 18 1 9 -5 35 -7 57 -7 22 1 55 2 73 3 24 1 31 5 26
14 -6 9 -4 9 8 -1 13 -10 17 -10 22 4 5 13 10 14 18 6 7 -7 17 -8 29 -2 11 7
20 7 24 0 4 -7 13 -7 26 0 14 8 19 7 19 -1 0 -8 4 -9 13 0 8 6 17 8 20 4 4 -3
7 -1 7 5 0 6 9 9 20 7 11 -2 20 -1 20 3 0 4 20 7 45 6 25 -1 45 3 45 8 0 5 5
6 10 3 6 -3 10 -3 10 2 0 4 16 8 35 9 21 0 32 -3 29 -10 -3 -6 3 -2 13 9 10
12 28 21 41 22 54 2 53 2 48 33 -3 23 0 30 12 31 11 0 12 2 5 6 -7 2 -13 11
-13 19 0 8 6 14 13 14 8 0 7 4 -3 10 -12 8 -12 10 -1 10 8 0 12 3 8 6 -3 3 -2
16 3 29 5 13 6 26 3 29 -8 7 -10 116 -3 116 3 0 6 9 6 20 0 11 -5 20 -11 20
-5 0 -3 5 5 10 8 5 11 10 5 10 -5 0 -10 11 -10 25 0 14 2 25 5 25 3 0 3 29 0
65 -3 36 -3 65 0 65 3 0 6 9 6 20 0 11 -5 20 -11 20 -5 0 -3 5 5 10 8 5 11 10
5 10 -6 0 -10 33 -10 80 0 44 3 80 7 80 4 0 3 12 -3 28 -16 40 -19 63 -8 57 5
-4 9 -1 9 4 0 6 -7 11 -15 11 -8 0 -15 5 -15 11 0 5 5 7 12 3 7 -5 8 -3 3 6
-4 7 -9 40 -10 72 -1 40 -6 62 -16 69 -12 7 -12 9 1 9 9 0 11 3 5 8 -5 4 -10
28 -10 54 0 26 -3 44 -9 41 -5 -4 -7 3 -4 15 4 13 2 20 -3 16 -6 -3 -8 10 -5
35 3 24 1 41 -5 41 -6 0 -7 4 -4 10 3 6 1 10 -5 10 -6 0 -8 5 -5 10 3 6 1 10
-6 10 -8 0 -9 4 0 13 8 10 7 17 -1 25 -7 7 -8 12 -4 12 5 0 4 6 -1 13 -14 18
-24 49 -14 43 5 -4 7 3 4 14 -3 11 -9 20 -14 20 -5 0 -5 7 -2 17 4 10 2 14 -4
10 -6 -4 -10 7 -11 26 0 17 -8 37 -17 43 -12 9 -13 13 -3 17 10 4 8 10 -7 22
-11 9 -19 18 -17 20 1 3 2 14 2 26 0 13 -4 18 -12 13 -7 -4 -8 -3 -4 5 4 6 0
23 -9 37 -9 13 -13 29 -10 34 3 6 1 10 -5 10 -7 0 -10 7 -6 15 3 8 1 15 -4 15
-6 0 -10 7 -10 15 0 8 -4 15 -8 15 -4 0 -14 20 -21 44 -7 25 -19 47 -27 50 -8
3 -14 9 -13 13 3 20 -2 34 -10 28 -6 -3 -8 4 -6 15 2 11 0 18 -6 15 -5 -4 -9
-1 -9 6 0 6 -8 18 -17 26 -11 9 -12 12 -3 7 8 -4 4 5 -9 19 -14 15 -21 27 -16
27 4 0 -2 8 -13 19 -12 10 -19 21 -15 25 3 3 -1 6 -10 6 -10 0 -17 5 -17 11 0
5 6 7 13 4 6 -4 -3 7 -21 23 -18 17 -32 32 -30 35 6 7 -30 36 -37 29 -5 -4 -5
-1 -1 6 4 7 1 15 -8 18 -9 3 -16 10 -16 16 0 14 -27 38 -34 31 -3 -4 -6 1 -6
10 0 9 -6 17 -14 17 -8 0 -18 5 -22 12 -5 7 -2 9 7 4 8 -4 6 -1 -3 7 -10 8
-14 18 -10 22 4 5 2 5 -5 2 -6 -4 -27 8 -46 27 -20 19 -38 32 -41 28 -3 -3 -6
2 -6 11 0 10 -3 16 -7 16 -20 -3 -34 2 -28 11 6 9 -16 15 -39 11 -5 -1 -3 6 5
15 13 16 12 17 -8 12 -16 -4 -23 -2 -23 8 0 8 -6 13 -12 12 -7 -2 -12 3 -10
10 1 6 -1 11 -5 11 -22 -4 -33 2 -27 14 6 9 5 9 -7 0 -12 -10 -18 -9 -29 7 -7
10 -17 17 -22 14 -4 -3 -8 0 -8 6 0 6 -4 8 -10 5 -5 -3 -10 -1 -10 4 0 6 -9
11 -20 11 -11 0 -20 5 -20 10 0 6 -9 10 -21 10 -11 0 -18 4 -15 8 2 4 -5 9
-17 9 -12 1 -23 7 -25 13 -2 5 -8 8 -13 4 -5 -3 -9 0 -9 6 0 6 -5 8 -11 5 -6
-4 -17 1 -25 11 -9 11 -13 13 -9 7 3 -7 1 -13 -4 -13 -6 0 -11 5 -11 11 0 5
-4 7 -10 4 -5 -3 -10 -1 -10 6 0 7 -3 9 -7 6 -3 -4 -17 0 -31 9 -13 9 -21 11
-18 5 5 -7 1 -9 -8 -5 -9 3 -16 10 -16 14 0 4 -8 7 -17 7 -41 0 -54 4 -48 13
4 7 -3 9 -19 6 -15 -3 -26 0 -26 6 0 6 -6 5 -16 -2 -12 -11 -15 -11 -12 -1 3
14 -13 19 -67 23 -16 1 -36 6 -44 12 -18 14 -41 16 -41 4 0 -7 -4 -7 -12 -1
-7 6 -23 9 -35 8 -13 -1 -19 3 -16 8 4 6 0 8 -10 4 -10 -3 -17 -3 -17 2 0 4
-22 7 -50 6 -27 -1 -50 2 -50 6 0 4 -7 10 -16 13 -15 6 -15 4 -3 -10 13 -16
12 -16 -11 -4 -14 8 -50 15 -81 15 -31 1 -62 6 -69 10 -8 5 -11 4 -7 -1 3 -6
-22 -8 -61 -6 -82 4 -78 4 -130 -1 -56 -4 -71 5 -54 34 11 17 11 20 0 14 -7
-3 -5 0 5 8 10 9 19 19 20 24 1 4 5 7 9 6 4 -2 5 4 2 12 -4 9 0 15 7 15 11 0
11 2 -1 10 -12 8 -12 10 2 15 10 4 15 16 13 30 -1 14 1 22 5 20 10 -6 17 22
16 58 -1 19 2 26 11 23 16 -6 17 10 3 19 -8 5 -8 11 -1 19 6 7 8 15 5 19 -3 3
-1 14 5 26 6 11 8 22 4 24 -5 3 -7 45 -7 94 1 48 -3 94 -8 101 -6 7 -7 12 -1
12 5 0 10 6 10 14 0 8 -5 14 -10 13 -6 -1 -11 13 -12 31 0 18 -5 36 -11 40 -6
4 -10 15 -8 25 1 9 -2 17 -7 17 -6 0 -7 5 -4 10 3 6 1 10 -4 10 -6 0 -11 9
-11 20 0 11 -4 20 -10 20 -5 0 -10 8 -10 18 -1 23 -26 56 -38 48 -5 -3 -7 6
-4 21 3 14 1 24 -4 21 -5 -3 -15 0 -22 8 -10 11 -10 14 0 14 9 0 9 3 -2 9 -8
6 -17 8 -21 5 -4 -2 -13 9 -20 25 -7 16 -17 27 -21 25 -4 -3 -8 2 -8 10 0 9
-7 16 -16 16 -8 0 -12 5 -9 10 3 6 1 10 -5 10 -17 0 -40 26 -32 35 4 5 1 5 -6
1 -7 -4 -15 -1 -18 8 -3 8 -11 13 -19 10 -7 -3 -15 2 -18 10 -4 9 -16 16 -27
16 -11 0 -23 7 -27 16 -5 13 -7 13 -14 2 -7 -10 -9 -8 -9 6 0 13 -5 17 -20 13
-14 -3 -20 0 -20 10 0 10 -6 14 -20 10 -11 -3 -27 1 -34 9 -17 16 -30 19 -21
3 8 -13 -37 12 -47 26 -5 6 -8 4 -8 -5 0 -9 -3 -11 -8 -4 -10 14 -42 26 -42
15 0 -5 -8 -7 -17 -5 -25 6 -149 10 -203 6z m193 -371 c5 0 6 -5 2 -10 -3 -5
0 -13 6 -17 7 -4 9 -3 5 4 -4 7 1 10 14 9 11 -1 20 -5 20 -10 0 -4 5 -5 10 -2
6 3 10 1 10 -5 0 -6 5 -8 10 -5 6 3 10 1 10 -6 0 -7 3 -10 6 -6 9 9 75 -43 68
-54 -3 -5 2 -6 10 -3 9 3 16 1 16 -6 0 -6 5 -8 11 -4 8 4 9 0 4 -15 -5 -16 -3
-20 10 -15 9 4 15 2 13 -2 -2 -5 7 -20 20 -34 12 -13 20 -30 18 -36 -3 -7 2
-15 10 -18 8 -3 14 -19 14 -41 0 -25 4 -34 12 -29 8 5 9 2 5 -9 -3 -9 -2 -19
4 -23 7 -4 6 -10 0 -18 -6 -7 -8 -16 -4 -20 11 -11 3 -110 -10 -118 -9 -5 -8
-8 3 -8 12 0 13 -2 1 -9 -7 -5 -10 -14 -7 -20 4 -6 2 -11 -5 -11 -6 0 -9 -8
-6 -19 4 -15 1 -18 -12 -14 -9 4 -13 3 -9 -2 4 -4 1 -17 -7 -27 -7 -11 -11
-28 -7 -37 5 -14 4 -14 -13 -1 -10 8 -16 10 -12 4 4 -6 -2 -19 -13 -29 -11
-10 -17 -21 -15 -25 6 -10 -24 -22 -36 -15 -5 4 -6 -1 -3 -10 4 -10 2 -15 -7
-13 -8 2 -13 -2 -12 -7 1 -6 -8 -12 -19 -12 -12 -1 -24 -6 -27 -10 -11 -15
-52 -34 -61 -28 -6 4 -10 2 -10 -3 0 -5 -11 -8 -25 -7 -14 2 -25 -1 -25 -7 0
-6 -7 -8 -15 -4 -8 3 -15 0 -15 -7 0 -8 -4 -6 -10 3 -5 8 -10 10 -10 4 0 -14
-52 -6 -62 10 -5 7 -8 3 -8 -9 -1 -20 -1 -20 -15 -1 -8 11 -15 16 -15 12 0 -5
-7 -3 -15 4 -9 7 -15 8 -15 2 0 -5 -9 -8 -20 -5 -11 3 -20 11 -20 18 0 9 -8
11 -22 7 -14 -3 -19 -2 -14 6 4 8 0 12 -11 12 -22 1 -53 23 -53 39 0 6 -4 10
-8 9 -12 -4 -63 53 -56 63 5 8 -10 13 -29 10 -5 -1 -7 4 -4 11 2 7 -5 24 -17
37 -11 13 -15 21 -8 17 18 -11 15 5 -5 21 -11 8 -12 11 -3 7 13 -7 13 -6 1 9
-8 10 -11 20 -7 24 3 3 -2 15 -11 25 -15 17 -15 20 -3 28 8 6 10 10 4 10 -14
0 -13 82 1 92 6 5 4 8 -5 8 -12 0 -13 2 -1 9 7 5 14 25 14 44 1 20 5 33 9 31
4 -3 9 0 9 5 1 6 2 17 3 24 1 6 8 11 16 9 8 -2 12 0 8 4 -4 4 -2 14 5 22 9 13
9 14 0 8 -9 -5 -11 -2 -7 8 3 9 10 14 15 11 4 -3 15 8 24 25 9 17 20 28 25 25
5 -3 11 4 15 15 4 11 15 20 26 20 11 0 18 4 15 9 -3 5 2 15 11 22 14 12 16 12
8 -1 -5 -9 0 -8 13 4 12 11 22 15 22 10 0 -5 4 -3 9 5 8 13 19 17 69 23 6 1
12 4 12 7 0 5 154 7 183 2z m489 -1197 c15 14 17 14 23 -2 6 -16 7 -16 20 1
12 17 13 17 20 0 6 -17 7 -17 20 0 12 17 13 17 20 0 6 -17 7 -17 20 0 12 17
13 17 20 0 6 -17 7 -17 20 0 11 15 13 16 19 2 4 -12 10 -14 25 -5 14 7 22 7
26 0 5 -8 11 -7 21 1 11 9 14 9 14 -1 0 -10 3 -10 15 0 9 7 15 8 15 2 0 -11
18 -11 38 1 6 5 12 4 12 -2 0 -6 16 -9 35 -7 29 2 35 -1 30 -13 -3 -11 0 -9
10 3 8 11 15 15 15 9 0 -14 34 -23 51 -12 7 4 18 5 24 1 5 -3 19 -7 30 -8 11
0 34 -4 50 -9 26 -6 56 -11 113 -17 6 -1 12 -4 12 -8 0 -4 17 -7 37 -8 21 -1
39 -6 41 -12 2 -5 17 -10 33 -10 16 0 29 -4 29 -10 0 -5 14 -10 30 -10 17 0
30 -4 30 -9 0 -6 15 -11 33 -13 17 -2 31 -8 30 -14 -1 -7 10 -10 27 -9 21 2
30 -2 30 -12 0 -9 6 -13 15 -9 8 3 15 1 15 -4 0 -6 9 -10 19 -10 10 0 21 -7
25 -15 3 -8 11 -12 18 -10 8 3 23 -3 35 -14 11 -11 24 -17 27 -14 3 4 6 -1 6
-10 0 -10 5 -14 15 -11 8 4 17 -1 21 -10 3 -9 12 -16 20 -16 8 0 14 -5 14 -12
0 -6 3 -9 6 -5 3 3 16 -5 29 -19 12 -13 25 -24 28 -24 11 0 62 -55 59 -64 -2
-5 5 -5 15 -2 9 4 14 4 11 0 -11 -10 40 -67 53 -59 5 4 9 -2 9 -12 0 -10 9
-25 20 -33 11 -8 20 -22 20 -32 0 -9 9 -20 20 -23 11 -4 18 -10 15 -15 -3 -5
2 -15 10 -23 8 -9 15 -20 15 -26 0 -6 5 -11 11 -11 10 0 35 -58 31 -72 -1 -4
8 -10 20 -13 16 -6 18 -9 7 -16 -11 -7 -11 -9 -1 -9 7 0 10 -4 7 -10 -3 -5 1
-10 10 -10 10 0 13 -5 9 -12 -4 -6 2 -18 12 -26 15 -12 16 -14 2 -9 -12 4 -15
2 -11 -9 3 -7 8 -14 12 -14 3 0 12 -15 19 -32 7 -18 18 -41 23 -50 5 -10 9
-26 9 -36 0 -9 7 -27 15 -39 10 -15 12 -24 5 -28 -7 -5 -6 -11 5 -19 9 -6 17
-28 18 -49 1 -20 8 -39 15 -42 7 -3 10 -10 7 -15 -4 -6 -1 -18 7 -27 7 -9 8
-14 2 -10 -6 3 -11 0 -11 -8 0 -8 4 -12 8 -9 4 2 10 0 14 -6 3 -5 1 -10 -6
-10 -9 0 -9 -3 0 -14 6 -7 9 -21 5 -30 -4 -10 -1 -16 7 -16 11 0 11 -3 -1 -10
-8 -5 -10 -10 -5 -10 6 0 12 -8 13 -17 2 -22 10 -58 12 -58 1 0 3 -8 5 -17 2
-10 -2 -18 -8 -18 -8 0 -7 -4 2 -9 8 -5 12 -18 8 -30 -3 -11 1 -25 9 -32 9 -8
11 -16 4 -29 -5 -9 -6 -20 -3 -24 12 -11 11 -50 -1 -65 -9 -12 -8 -14 4 -9 11
4 16 0 16 -12 0 -10 -4 -16 -8 -14 -4 3 -5 -2 -2 -10 3 -9 11 -13 18 -9 8 5 8
3 -1 -8 -14 -17 -14 -28 -2 -51 7 -12 6 -18 -1 -18 -7 0 -8 -6 0 -19 7 -14 7
-22 0 -26 -8 -5 -8 -11 0 -20 8 -10 8 -15 0 -20 -8 -5 -8 -11 1 -21 6 -8 8
-14 5 -14 -4 0 -2 -10 5 -21 9 -17 8 -20 -2 -14 -9 6 -11 3 -6 -8 4 -10 1 -17
-6 -17 -8 0 -6 -4 3 -10 8 -5 11 -10 7 -10 -4 0 -3 -10 4 -21 6 -12 7 -19 1
-15 -5 3 -12 -1 -16 -9 -3 -8 -1 -17 4 -20 4 -3 7 -13 5 -23 -1 -9 2 -25 7
-35 5 -11 5 -16 -1 -15 -5 2 -16 -5 -23 -14 -9 -12 -32 -19 -73 -22 -33 -2
-61 -5 -62 -6 -8 -7 -30 -5 -40 3 -9 6 -13 5 -13 -4 0 -11 -2 -11 -10 1 -6 10
-10 11 -10 3 0 -7 -7 -13 -15 -13 -8 0 -15 6 -15 13 0 8 -3 8 -9 -2 -7 -10
-31 -15 -83 -16 -40 0 -79 -4 -85 -8 -6 -4 -14 -3 -18 3 -9 15 -28 12 -19 -2
5 -10 4 -10 -6 -1 -9 8 -19 9 -31 3 -11 -7 -20 -7 -24 0 -9 15 -27 12 -19 -2
5 -10 4 -10 -6 -1 -9 8 -19 9 -31 3 -11 -7 -20 -7 -24 0 -3 5 -11 10 -16 10
-6 0 -8 -4 -5 -8 4 -7 -28 -8 -44 -2 -5 2 -89 9 -135 10 -10 1 -25 6 -32 12
-10 8 -13 7 -13 -3 0 -9 -3 -10 -8 -4 -4 6 -25 10 -47 9 -22 0 -51 6 -64 14
-22 13 -23 13 -18 -2 6 -15 4 -15 -18 1 -27 20 -30 29 -15 38 8 5 7 11 -1 21
-6 8 -7 14 -2 14 6 0 10 54 9 135 0 74 -3 135 -6 135 -6 0 -11 50 -13 127 -1
28 -5 39 -12 33 -7 -5 -10 9 -10 43 1 29 -5 61 -11 72 -6 11 -11 31 -9 43 1
13 -4 26 -11 29 -7 2 -11 13 -9 24 2 10 0 19 -5 19 -5 0 -7 9 -5 20 2 11 -1
20 -6 20 -6 0 -7 5 -4 10 3 6 1 10 -6 10 -8 0 -7 5 2 17 8 9 9 14 3 10 -10 -6
-24 11 -28 33 -1 3 -5 11 -10 19 -6 9 -5 12 2 8 6 -5 8 0 5 13 -3 11 -9 17
-14 14 -8 -5 -13 12 -12 44 1 6 -4 12 -9 12 -6 0 -8 7 -5 14 4 10 1 13 -9 9
-8 -3 -14 -2 -13 3 4 22 -2 45 -10 40 -4 -3 -7 6 -5 19 1 14 -3 25 -10 25 -6
0 -12 10 -13 21 -1 12 -11 31 -22 43 -12 12 -21 28 -21 34 0 7 -4 12 -10 12
-5 0 -7 7 -4 15 4 8 2 15 -3 15 -13 0 -35 49 -28 61 3 5 -1 6 -9 3 -11 -4 -14
0 -11 16 3 16 0 20 -11 16 -9 -3 -12 -1 -9 4 3 6 1 10 -4 10 -6 0 -10 3 -10 8
3 19 -2 33 -10 28 -11 -7 -23 22 -14 36 3 6 2 8 -4 5 -6 -4 -15 5 -22 19 -6
14 -16 22 -22 18 -8 -4 -9 0 -4 15 5 16 2 21 -11 21 -10 0 -15 3 -11 6 3 3 -3
15 -13 27 -11 11 -17 24 -14 28 3 5 -3 6 -12 2 -12 -4 -15 -3 -10 5 4 7 2 12
-3 12 -6 0 -11 7 -11 15 0 8 -4 15 -10 15 -5 0 -10 7 -10 15 0 8 -9 19 -20 25
-11 6 -20 18 -20 26 0 8 -4 12 -10 9 -5 -3 -10 3 -10 14 0 12 -6 20 -12 19 -7
-2 -12 5 -12 14 1 10 -1 17 -5 16 -16 -2 -31 3 -30 10 3 18 -2 33 -9 28 -5 -3
-14 4 -22 14 -8 10 -18 16 -23 13 -6 -3 -7 -1 -3 5 4 7 -4 22 -17 34 -13 13
-22 29 -19 37 2 8 0 11 -6 7 -5 -3 -24 8 -42 24 -18 17 -29 30 -25 30 3 0 0 7
-9 15 -8 8 -20 15 -26 15 -6 0 -8 5 -5 10 3 6 -1 10 -10 10 -9 0 -13 5 -10 10
3 6 -1 10 -10 10 -9 0 -14 4 -10 9 3 5 -4 12 -15 16 -11 3 -20 13 -20 21 0 8
-6 14 -12 14 -7 0 -21 11 -30 24 l-17 23 40 -2 c21 -1 39 2 39 8 0 5 7 4 15
-3 12 -10 15 -9 16 6 0 19 1 19 8 0 7 -17 8 -17 23 -2z m-1466 -8 c12 1 26 4
33 8 6 4 11 1 11 -6 0 -8 3 -9 8 -3 8 12 43 12 61 1 6 -4 11 -3 11 2 0 13 33
10 42 -3 5 -6 8 -6 8 1 0 11 35 12 46 1 4 -3 12 -3 18 0 16 10 46 11 52 1 3
-4 14 -3 25 2 14 8 19 7 19 -1 0 -8 4 -8 15 1 8 7 15 8 15 3 0 -6 16 -9 35 -8
l34 1 -42 -40 c-23 -22 -45 -40 -49 -38 -5 1 -8 -3 -8 -8 0 -5 -1 -13 -1 -17
-2 -11 -43 -39 -47 -33 -2 3 -10 -7 -18 -22 -8 -16 -19 -28 -23 -28 -5 0 -23
-19 -40 -42 -17 -23 -31 -38 -32 -32 0 5 -4 -1 -10 -14 -5 -15 -13 -21 -21
-16 -7 4 -10 4 -6 -1 4 -4 0 -14 -10 -22 -9 -8 -11 -11 -3 -7 9 5 12 3 7 -4
-4 -7 -14 -12 -21 -12 -9 0 -12 -6 -8 -17 4 -10 2 -14 -4 -10 -6 4 -14 0 -17
-9 -3 -8 -11 -12 -17 -8 -8 4 -9 3 -5 -5 4 -6 0 -14 -8 -17 -9 -3 -16 -12 -16
-20 0 -8 -4 -14 -9 -14 -5 0 -12 -9 -16 -19 -3 -11 -15 -23 -26 -26 -10 -4
-17 -11 -13 -16 3 -6 -3 -18 -15 -28 -11 -10 -17 -22 -13 -26 4 -5 -2 -5 -12
-1 -15 5 -17 4 -7 -8 9 -11 8 -15 -4 -20 -9 -3 -13 -11 -9 -17 5 -8 3 -9 -5
-5 -8 5 -14 0 -18 -13 -3 -12 -10 -21 -15 -21 -5 0 -6 -4 -3 -10 5 -9 -6 -14
-26 -12 -3 1 -5 -12 -4 -28 1 -20 -2 -27 -12 -23 -8 3 -13 0 -11 -8 2 -8 -3
-13 -10 -11 -6 1 -11 -1 -10 -5 1 -5 -3 -18 -10 -29 -6 -12 -8 -25 -4 -29 4
-5 1 -5 -5 -1 -7 4 -14 2 -14 -3 -1 -6 -2 -15 -3 -20 0 -6 -7 -16 -15 -23 -10
-10 -12 -10 -7 0 4 6 2 12 -4 12 -7 0 -9 -8 -5 -20 4 -12 2 -20 -5 -20 -7 0
-9 -7 -6 -15 3 -9 -1 -18 -10 -22 -9 -3 -13 -12 -9 -21 4 -12 3 -13 -10 -2
-13 11 -14 10 -10 -3 4 -8 2 -18 -4 -21 -6 -4 -7 -14 -4 -23 5 -12 3 -14 -7
-8 -8 5 -11 3 -8 -6 2 -7 -4 -22 -13 -33 -10 -10 -16 -23 -13 -28 3 -4 0 -8
-5 -8 -6 0 -11 -3 -10 -7 2 -17 -14 -52 -21 -48 -5 3 -7 -6 -6 -19 2 -14 -3
-27 -10 -30 -8 -3 -14 -15 -14 -26 0 -11 -6 -20 -12 -20 -10 0 -10 -2 0 -9 11
-7 11 -9 -2 -14 -9 -4 -13 -13 -10 -21 3 -8 0 -17 -6 -21 -9 -6 -9 -10 1 -16
11 -7 10 -9 -4 -9 -10 0 -17 -6 -16 -12 3 -28 -2 -49 -11 -43 -5 3 -8 -9 -6
-30 2 -26 -1 -34 -10 -31 -8 3 -11 -1 -7 -10 3 -8 1 -20 -4 -27 -4 -6 -8 -21
-8 -32 0 -11 -3 -22 -7 -25 -4 -4 -8 -27 -9 -53 -2 -30 -6 -44 -13 -40 -6 4
-5 0 2 -9 10 -13 10 -18 1 -24 -8 -5 -9 -3 -4 6 5 8 4 11 -2 7 -11 -7 -11 -57
1 -75 4 -7 3 -12 -2 -12 -6 0 -9 -20 -8 -45 1 -25 -1 -45 -4 -45 -7 0 -4 -106
4 -125 3 -8 0 -17 -6 -21 -7 -5 -8 -2 -3 6 5 8 4 11 -3 6 -14 -9 -4 -38 12
-31 6 3 3 0 -6 -7 -15 -11 -15 -13 0 -26 9 -7 11 -11 5 -7 -15 7 -18 -11 -3
-20 6 -4 8 -11 4 -16 -3 -5 -1 -15 4 -22 6 -8 3 -18 -11 -32 -11 -11 -16 -13
-12 -5 7 12 6 13 -6 3 -8 -6 -27 -12 -44 -14 -16 -2 -36 -8 -44 -14 -11 -7
-13 -7 -8 2 9 15 -46 12 -65 -4 -8 -7 -19 -8 -28 -3 -8 5 -21 5 -29 1 -9 -4
-44 -7 -78 -6 -40 0 -60 -3 -56 -10 3 -5 0 -5 -7 2 -9 8 -19 9 -31 3 -11 -7
-20 -7 -24 0 -9 15 -27 12 -19 -2 5 -10 4 -10 -6 -1 -9 8 -19 9 -31 3 -11 -7
-20 -7 -24 0 -3 5 -11 10 -16 10 -6 0 -8 -4 -5 -8 3 -5 -1 -9 -9 -9 -8 0 -15
4 -15 8 0 9 -42 5 -60 -6 -7 -5 -11 -4 -8 1 4 5 -35 10 -89 11 -53 1 -99 5
-102 10 -3 5 -33 8 -66 8 -33 0 -74 5 -92 11 -17 7 -34 10 -37 6 -8 -7 -9 5
-10 221 -1 137 2 186 11 183 14 -6 11 17 -6 38 -12 14 -12 16 2 10 12 -4 15
-1 12 15 -2 12 -7 26 -10 31 -3 6 -2 10 3 10 5 0 9 10 9 23 -1 56 4 88 11 83
5 -3 9 1 9 9 0 8 -5 11 -10 8 -6 -4 -7 -1 -2 7 4 7 10 33 12 58 2 25 9 52 16
61 10 12 9 13 -3 6 -12 -7 -13 -6 -3 6 7 9 11 25 8 37 -2 12 0 22 5 22 4 0 6
10 2 22 -3 14 -1 19 6 14 7 -4 10 4 10 23 -1 17 5 38 13 48 12 15 12 16 -1 9
-8 -4 -6 0 4 8 11 9 15 16 9 16 -8 0 -8 10 -1 35 6 19 15 32 20 29 4 -3 8 0 8
5 0 6 -4 11 -10 11 -6 0 -5 10 2 25 6 14 14 25 18 25 4 0 6 13 5 30 -1 16 2
27 6 25 7 -5 24 43 21 58 -1 4 3 7 10 7 6 0 8 3 5 7 -4 3 -2 12 4 20 6 7 8 13
3 13 -5 0 -4 4 3 8 6 4 13 14 15 22 2 8 10 21 18 28 10 9 10 11 1 7 -14 -8 15
44 32 56 5 3 8 9 8 13 -3 22 1 27 15 22 14 -5 15 -4 5 8 -10 11 -8 17 8 28 12
8 18 18 14 21 -3 4 -1 7 6 7 7 0 9 5 6 10 -3 6 -1 10 6 10 7 0 9 3 6 6 -4 4 3
15 14 25 11 9 20 20 20 23 -1 7 16 27 62 77 17 19 30 38 29 43 -2 5 5 6 14 2
15 -6 15 -4 3 11 -8 9 -9 14 -2 10 13 -8 85 57 75 68 -3 3 1 3 11 0 17 -7 51
18 40 29 -4 3 -1 6 5 6 6 0 18 7 26 16 11 10 16 11 16 3 0 -16 15 -2 15 14 0
7 9 11 19 9 11 -2 15 1 11 7 -3 6 -1 12 4 12 6 1 16 2 21 3 6 0 15 7 19 15 5
8 16 11 26 8 9 -4 14 -3 11 2 -7 11 22 23 35 15 5 -3 8 0 7 8 -2 7 4 13 12 13
8 0 19 6 23 13 4 6 16 12 25 12 10 0 22 4 28 10 5 5 22 11 37 12 15 1 27 6 27
11 0 5 7 7 15 3 8 -3 15 -1 15 5 0 6 9 8 21 4 15 -5 19 -4 15 4 -4 7 1 12 13
12 20 1 32 4 49 9 4 1 10 2 15 1 4 0 7 4 7 10 0 6 9 8 21 4 16 -6 20 -4 14 6
-6 11 -5 11 4 3 13 -12 51 -7 51 6 0 4 11 6 25 5 14 -2 25 1 25 6 0 5 11 4 26
-1 16 -7 23 -7 19 0 -3 6 0 10 7 11 7 1 29 2 48 4 19 2 37 4 40 5 3 1 22 2 43
2 20 -1 37 4 37 10 0 7 5 7 14 -1 10 -8 16 -9 21 -1 3 6 10 8 14 6 4 -3 13 -1
21 4 8 5 17 6 20 2 3 -4 15 -7 26 -6z m681 -360 c-1 -41 1 -72 4 -70 4 2 9 -3
12 -11 4 -10 1 -12 -11 -9 -14 5 -13 3 2 -10 11 -9 15 -16 9 -16 -15 0 -14
-60 1 -60 6 0 4 -5 -5 -10 -11 -6 -15 -18 -11 -36 4 -21 2 -25 -9 -19 -12 7
-12 6 -1 -7 11 -13 11 -21 2 -39 -7 -12 -8 -19 -3 -16 5 4 10 -1 10 -9 0 -8
-5 -13 -11 -11 -7 3 -11 -14 -10 -47 0 -29 -5 -57 -12 -64 -7 -7 -11 -26 -9
-42 2 -20 -2 -33 -13 -40 -15 -8 -15 -9 2 -10 17 0 18 -2 4 -17 -9 -10 -14
-28 -12 -40 2 -13 -1 -23 -6 -23 -6 0 -10 -7 -10 -16 0 -9 5 -12 13 -8 8 5 8
2 -2 -9 -15 -19 -26 -23 -15 -5 4 7 3 8 -5 4 -9 -6 -9 -11 0 -22 10 -12 8 -18
-7 -30 -10 -9 -12 -12 -4 -8 13 7 13 5 1 -9 -7 -9 -10 -17 -6 -17 4 0 -2 -16
-14 -36 -12 -19 -17 -32 -11 -29 6 3 7 -1 4 -9 -3 -9 -10 -16 -16 -16 -5 0 -6
-4 -3 -10 3 -5 0 -10 -7 -10 -9 0 -9 -3 2 -10 13 -8 13 -11 -2 -22 -10 -7 -19
-24 -22 -38 -2 -14 -8 -24 -13 -23 -5 1 -10 -4 -10 -12 0 -8 5 -11 11 -8 5 4
0 -8 -13 -25 -12 -18 -19 -37 -16 -42 4 -6 1 -9 -6 -8 -7 2 -13 -3 -14 -10 0
-7 -6 -16 -13 -21 -8 -5 -13 -10 -11 -12 6 -11 -14 -48 -23 -43 -7 5 -8 2 -3
-6 4 -7 3 -15 -2 -19 -6 -3 -17 -19 -25 -36 -8 -16 -20 -29 -27 -27 -7 1 -10
-2 -7 -7 4 -5 -5 -22 -19 -37 -14 -15 -25 -31 -25 -36 0 -5 -4 -6 -10 -3 -5 3
-10 -1 -10 -9 0 -9 -5 -16 -11 -16 -5 0 -7 -4 -4 -10 3 -5 -3 -10 -14 -10 -13
0 -19 -5 -15 -14 3 -8 0 -17 -7 -22 -8 -4 -10 -3 -5 4 5 8 2 10 -8 6 -9 -3
-13 -10 -10 -15 3 -5 -2 -12 -10 -15 -9 -3 -16 -13 -16 -21 0 -8 -4 -11 -10
-8 -5 3 -10 -1 -10 -9 0 -10 -7 -13 -20 -11 -11 2 -19 1 -17 -3 4 -7 -26 -40
-40 -44 -5 -2 -7 -6 -6 -10 2 -5 0 -8 -5 -7 -14 2 -52 -13 -52 -21 0 -5 -10
-12 -22 -16 -13 -4 -26 -11 -29 -16 -3 -5 -15 -10 -26 -11 -12 0 -19 -6 -16
-14 3 -8 -2 -11 -16 -8 -14 3 -21 -1 -21 -12 0 -12 -3 -13 -14 -4 -12 10 -17
8 -26 -10 -9 -16 -14 -18 -20 -9 -6 9 -9 9 -15 0 -12 -20 -25 11 -14 32 7 14
6 18 -6 18 -8 0 -15 5 -15 11 0 5 4 8 9 4 5 -3 12 -1 16 5 3 5 1 10 -5 10 -7
0 -8 6 -1 18 7 13 6 23 -1 30 -9 9 -9 12 2 12 9 0 8 5 -6 16 -10 8 -14 13 -7
10 15 -8 27 10 13 19 -6 4 -7 13 -2 23 5 9 8 30 7 45 -1 18 4 31 13 34 12 5
12 9 -4 21 -14 11 -15 13 -3 9 13 -4 16 1 15 26 -3 37 3 59 13 53 4 -3 7 15 6
40 0 24 3 44 8 44 4 0 5 6 1 13 -6 9 -5 9 7 0 13 -11 15 -8 11 17 -3 21 0 30
9 30 11 0 11 2 -1 10 -10 6 -11 10 -2 10 6 0 12 12 12 26 0 20 4 25 16 20 14
-5 15 -4 4 9 -10 12 -10 15 0 15 8 0 10 3 7 7 -4 3 -2 12 3 18 6 7 11 23 12
37 1 16 7 24 14 21 8 -3 11 4 10 20 -2 18 1 24 11 20 9 -3 11 0 8 10 -4 8 1
22 10 31 9 9 13 16 9 16 -4 0 1 8 10 19 9 10 18 28 19 39 0 11 5 18 9 16 4 -3
8 2 8 10 0 8 7 22 16 30 8 9 12 20 9 26 -3 5 1 10 9 10 10 0 13 6 9 17 -4 11
-3 14 5 9 11 -6 14 -1 11 20 0 3 11 16 26 30 14 13 23 29 20 34 -3 6 -1 10 5
10 6 0 9 4 5 9 -3 6 4 15 15 21 11 6 20 18 20 26 0 8 5 12 10 9 6 -3 10 1 10
10 0 8 7 18 15 21 8 4 13 10 10 14 -3 5 3 13 12 19 10 6 14 11 10 11 -4 0 6
14 24 31 17 17 29 33 26 36 -7 6 15 32 23 28 3 -2 11 3 18 11 7 8 10 14 7 14
-7 0 9 20 58 71 21 21 36 39 32 39 -4 0 0 7 9 15 8 8 17 15 20 15 3 0 18 12
33 27 15 14 21 23 13 19 -8 -4 -5 1 7 12 12 11 19 23 15 28 -4 5 1 2 11 -5 15
-12 17 -12 11 3 -4 10 -1 16 9 16 9 0 19 4 22 10 3 6 -1 7 -12 4 -15 -4 -14
-3 2 7 11 7 24 18 28 26 5 7 13 10 19 7 7 -5 9 -1 5 9 -4 11 -2 14 9 10 9 -3
14 1 14 12 0 9 5 13 10 10 6 -3 10 -1 10 4 0 6 2 11 4 11 3 0 4 -33 3 -74z
m429 31 c-7 -5 -2 -7 11 -4 17 4 21 1 18 -14 -2 -11 0 -17 4 -15 10 7 41 -30
33 -39 -4 -4 -2 -6 3 -5 25 5 37 -1 31 -16 -3 -8 -2 -12 4 -9 6 3 10 1 10 -4
0 -6 8 -11 17 -11 9 0 14 -3 10 -6 -8 -8 18 -34 33 -34 7 0 9 -7 6 -16 -3 -8
-2 -13 3 -10 5 3 12 -1 15 -10 3 -8 11 -12 16 -9 6 4 10 3 9 -2 -4 -21 2 -33
16 -33 8 0 15 -4 15 -9 0 -4 11 -19 24 -32 13 -13 22 -32 20 -42 -2 -14 0 -16
11 -7 11 9 15 7 21 -14 3 -14 10 -23 15 -20 8 5 13 -10 10 -29 -1 -5 3 -6 9
-2 5 3 10 1 10 -5 0 -6 5 -8 12 -4 6 4 8 3 4 -4 -3 -6 1 -17 9 -25 8 -9 15
-20 15 -26 0 -6 9 -15 20 -21 11 -6 20 -17 20 -25 0 -8 5 -15 10 -15 6 0 10
-7 10 -15 0 -9 6 -18 14 -21 8 -3 17 -12 20 -20 4 -10 1 -13 -7 -9 -6 3 -2 -2
11 -11 12 -9 22 -21 22 -26 0 -5 7 -16 15 -25 8 -8 12 -19 9 -25 -4 -7 -2 -8
4 -4 7 4 12 1 12 -9 0 -10 5 -13 12 -9 7 4 8 3 4 -5 -9 -14 28 -63 40 -53 5 4
3 0 -4 -9 -10 -14 -9 -18 5 -23 15 -6 15 -8 3 -16 -11 -7 -12 -10 -2 -10 20 0
38 -23 36 -47 -1 -12 5 -24 13 -28 8 -3 12 -12 9 -20 -3 -9 0 -15 9 -15 8 0
15 -13 17 -32 2 -18 8 -32 14 -31 6 1 11 -8 10 -20 -1 -12 2 -25 7 -28 5 -4
10 -18 10 -33 1 -14 5 -26 10 -26 4 0 7 -7 7 -15 0 -8 6 -15 13 -15 8 0 8 -3
2 -8 -13 -9 -13 -27 -1 -39 5 -5 6 -2 1 6 -6 10 -4 12 4 7 7 -5 10 -14 7 -21
-2 -7 1 -18 7 -25 9 -10 9 -11 -2 -5 -10 6 -9 2 2 -16 9 -13 15 -42 14 -66 -1
-23 2 -39 7 -35 5 3 7 -2 3 -11 -3 -9 -1 -19 5 -23 7 -5 8 -2 3 6 -5 9 -4 11
3 6 8 -4 8 -15 2 -31 -6 -17 -6 -25 1 -25 6 0 8 -4 5 -8 -2 -4 -1 -14 4 -22 5
-9 3 -25 -7 -44 -12 -24 -13 -28 -2 -19 11 9 14 7 15 -13 1 -15 -2 -22 -10
-17 -6 3 -6 1 2 -8 6 -7 12 -17 12 -22 0 -4 -6 -5 -12 -1 -9 5 -9 2 1 -9 7 -9
10 -17 6 -17 -4 0 -2 -6 4 -14 9 -11 9 -16 0 -22 -8 -5 -10 -3 -4 7 5 8 4 10
0 6 -12 -10 -16 -39 -5 -32 5 3 12 0 16 -7 4 -7 4 -10 -1 -6 -4 4 -16 3 -27
-3 -14 -7 -22 -6 -34 6 -9 8 -20 13 -25 10 -5 -4 -9 -1 -9 5 0 6 -4 8 -10 5
-5 -3 -10 -1 -10 6 0 7 -3 9 -7 6 -3 -4 -12 1 -20 11 -8 9 -12 11 -8 5 10 -20
-2 -15 -30 12 -15 16 -25 21 -26 13 0 -10 -2 -10 -6 0 -2 6 -11 12 -19 12 -9
0 -12 5 -9 10 6 9 -8 14 -27 11 -5 0 -8 4 -8 9 0 6 -5 10 -11 10 -7 0 -25 14
-41 30 -28 30 -45 40 -32 18 4 -7 3 -8 -5 -4 -6 4 -9 12 -5 17 3 6 -4 13 -16
16 -13 4 -19 11 -16 20 4 9 1 13 -6 11 -17 -6 -41 19 -32 33 4 7 3 9 -3 6 -12
-7 -56 27 -47 36 3 3 -4 11 -16 17 -12 6 -19 14 -17 17 3 2 -8 17 -25 33 -16
16 -30 32 -31 37 -1 4 -5 7 -9 6 -4 -2 -5 4 -2 12 4 8 1 15 -6 15 -7 0 -10 7
-6 16 3 8 2 13 -3 10 -5 -3 -15 2 -22 11 -10 11 -10 14 -2 9 9 -5 11 -2 7 8
-3 9 -10 13 -15 10 -5 -3 -9 4 -9 14 0 11 -7 22 -15 26 -8 3 -15 11 -15 19 0
18 -23 67 -32 67 -5 0 -8 11 -8 25 0 17 -6 25 -17 26 -12 0 -13 2 -5 6 10 4 9
9 -5 20 -10 8 -12 12 -5 8 6 -3 12 -1 12 5 0 6 -6 13 -14 16 -8 3 -13 13 -12
22 2 9 -4 22 -13 29 -13 10 -13 12 -2 13 10 0 7 8 -10 27 -13 15 -16 21 -6 14
15 -12 17 -12 11 3 -3 9 -10 16 -14 16 -4 0 -7 10 -6 23 0 12 -4 21 -10 20 -5
-1 -9 12 -8 28 1 16 -2 29 -7 29 -5 0 -9 7 -9 16 0 9 5 13 13 9 6 -4 4 0 -5 8
-10 8 -18 23 -18 34 0 10 -6 25 -12 32 -11 10 -9 11 6 5 19 -7 19 -6 -1 22
-14 19 -19 35 -13 44 5 8 3 22 -4 34 -7 12 -12 31 -11 44 1 12 -1 22 -5 22 -4
0 -5 16 -3 36 2 23 0 33 -7 29 -7 -4 -7 2 0 20 7 19 6 27 -3 31 -9 3 -13 22
-11 55 1 27 -3 52 -7 55 -5 3 -5 13 -1 22 5 9 8 38 8 65 -1 26 3 47 9 47 5 0
3 5 -5 10 -12 8 -12 10 -1 10 10 0 11 3 2 14 -8 10 -9 16 -1 21 5 3 10 11 10
16 0 6 -5 7 -12 3 -7 -4 -8 -3 -4 4 5 9 14 7 31 -5 16 -13 19 -21 11 -26z
m-451 -487 c3 -5 1 -10 -4 -10 -6 0 -11 5 -11 10 0 6 2 10 4 10 3 0 8 -4 11
-10z m240 -590 c-1 -16 2 -27 7 -24 4 3 9 0 9 -5 1 -6 2 -17 3 -23 1 -7 8 -12
15 -10 8 2 10 -4 7 -16 -4 -11 0 -24 9 -32 8 -7 15 -23 15 -36 0 -14 5 -23 13
-21 6 1 11 -6 9 -15 -2 -11 3 -18 13 -18 9 0 13 -5 10 -10 -4 -6 -1 -17 5 -25
7 -8 9 -15 4 -16 -5 0 1 -4 14 -10 13 -5 21 -13 17 -18 -3 -5 -1 -12 5 -16 5
-3 10 -15 10 -26 0 -11 3 -18 8 -16 8 6 26 -13 30 -33 2 -7 11 -19 20 -27 9
-7 13 -13 9 -13 -4 0 -2 -6 5 -14 7 -8 16 -12 21 -9 4 2 7 -3 7 -11 0 -9 5
-16 11 -16 5 0 7 -4 4 -10 -3 -5 2 -10 11 -10 10 0 15 -3 11 -6 -3 -3 5 -16
19 -29 13 -12 24 -27 24 -34 0 -6 4 -11 9 -11 13 0 60 -47 54 -54 -4 -3 -1 -6
5 -6 7 0 12 -7 12 -16 0 -8 5 -12 10 -9 6 3 10 1 10 -4 0 -12 -27 -10 -47 2
-8 5 -13 3 -13 -4 0 -8 -5 -7 -17 2 -11 10 -14 10 -9 2 4 -7 2 -13 -3 -13 -6
0 -11 5 -11 11 0 6 -5 7 -12 2 -17 -10 -39 -13 -33 -4 2 4 -2 8 -10 8 -8 0
-12 -4 -9 -9 3 -4 0 -8 -5 -8 -6 0 -11 5 -11 11 0 6 -5 7 -12 2 -19 -11 -39
-13 -32 -2 3 5 0 9 -5 9 -6 0 -11 -4 -11 -9 0 -5 -8 -8 -17 -6 -10 1 -17 8
-15 15 1 6 -2 9 -8 5 -6 -3 -8 -11 -5 -16 4 -5 1 -9 -4 -9 -6 0 -11 5 -11 12
0 6 -10 3 -22 -8 -12 -10 -18 -14 -15 -7 9 14 -12 30 -22 16 -9 -13 -36 -9
-33 6 1 7 -2 10 -8 6 -6 -3 -8 -11 -5 -16 4 -5 1 -9 -4 -9 -6 0 -11 5 -11 12
0 6 -10 3 -22 -8 -12 -10 -18 -14 -15 -7 9 14 -12 30 -22 17 -9 -13 -41 -17
-41 -4 0 5 -5 10 -11 10 -5 0 -7 -6 -3 -12 5 -9 2 -9 -9 1 -10 7 -17 9 -17 3
0 -6 -8 -9 -17 -7 -10 1 -17 8 -15 15 1 6 -2 9 -8 5 -6 -3 -8 -11 -5 -16 4 -5
1 -9 -4 -9 -6 0 -11 5 -11 12 0 6 -10 3 -22 -8 -12 -10 -18 -14 -15 -7 9 14
-12 30 -22 16 -9 -13 -36 -9 -33 6 1 7 -2 10 -8 6 -6 -3 -8 -11 -5 -16 4 -5 1
-9 -4 -9 -6 0 -11 5 -11 12 0 6 -10 3 -22 -8 -12 -10 -18 -14 -15 -7 9 14 -12
30 -22 17 -3 -5 -14 -10 -25 -12 -12 -2 -16 1 -11 10 6 10 5 10 -5 1 -10 -9
-17 -10 -27 -2 -7 7 -13 7 -13 2 0 -5 -7 -10 -15 -10 -8 0 -15 5 -15 10 0 5
-7 4 -15 -3 -37 -31 -9 6 47 63 35 34 62 66 60 70 -1 4 6 7 15 5 13 -2 17 3
15 16 -2 11 1 15 7 11 6 -3 11 0 11 8 0 8 7 18 16 21 8 3 12 10 9 16 -3 5 -1
10 5 10 6 0 8 4 5 10 -4 6 1 7 11 3 11 -4 15 -2 11 4 -4 6 4 22 17 36 13 14
21 29 17 33 -3 4 1 5 10 1 13 -4 16 -1 12 14 -3 10 0 19 6 19 6 0 11 7 11 16
0 8 4 13 8 10 4 -2 9 5 9 16 1 12 7 26 14 32 9 8 10 7 4 -3 -5 -9 -4 -12 3 -7
6 3 9 15 7 26 -2 12 0 18 6 15 5 -4 9 1 9 10 0 9 4 14 9 10 6 -3 8 4 6 15 -2
11 1 20 6 20 6 0 7 5 4 10 -3 6 1 10 9 10 9 0 15 3 15 8 -4 23 2 52 10 48 5
-3 11 1 15 9 3 8 1 15 -5 15 -6 0 -7 5 -4 10 4 6 11 8 16 4 5 -3 9 -2 8 3 -5
21 14 59 30 60 14 1 17 -5 16 -27z m-755 -1025 c25 2 51 -2 59 -9 8 -6 12 -6
9 -1 -4 7 21 11 72 11 51 1 77 -3 73 -9 -4 -6 -1 -7 8 -1 20 12 160 13 152 1
-4 -6 -1 -7 8 -1 20 12 119 12 119 -1 0 -7 3 -7 8 0 4 6 16 10 27 10 11 0 25
3 32 8 6 4 14 4 17 -1 3 -5 27 -8 53 -7 27 2 54 -2 62 -8 8 -7 12 -7 9 -2 -4
7 21 11 72 11 55 1 77 -2 73 -10 -5 -8 -3 -8 8 0 8 6 38 10 66 9 34 -2 50 1
46 8 -4 6 -1 7 8 2 20 -13 160 -14 152 -2 -4 6 -1 7 8 2 20 -13 160 -14 152
-2 -4 6 -1 7 8 2 21 -14 159 -14 152 -1 -5 8 -3 8 8 0 8 -6 63 -10 137 -9 91
1 122 -2 122 -11 0 -7 -5 -16 -10 -19 -6 -4 -8 -11 -5 -16 4 -5 -1 -12 -10
-15 -13 -5 -14 -9 -4 -15 11 -6 10 -9 -3 -14 -10 -4 -14 -14 -10 -27 4 -17 2
-20 -12 -15 -9 4 -15 3 -12 -2 8 -13 -22 -81 -35 -81 -7 0 -6 -6 2 -17 12 -14
12 -16 0 -8 -11 6 -13 4 -8 -9 4 -9 3 -15 -1 -12 -5 3 -16 -8 -25 -23 -19 -32
-65 -47 -74 -24 -4 10 -8 11 -13 3 -7 -12 -28 -14 -72 -7 -16 2 -28 0 -28 -6
0 -7 -4 -7 -11 0 -8 8 -20 8 -36 2 -13 -5 -22 -6 -20 -1 3 4 -16 6 -41 5 -26
-1 -55 -2 -65 -2 -11 -1 -16 -6 -12 -13 4 -7 -2 -3 -13 10 -11 12 -22 17 -24
12 -4 -12 -27 -14 -70 -7 -16 2 -28 0 -28 -6 0 -7 -4 -7 -11 0 -8 8 -20 8 -36
2 -13 -5 -22 -5 -19 0 3 4 -6 6 -19 3 -14 -2 -22 -9 -18 -15 3 -6 -4 -3 -17 6
-22 15 -24 15 -37 -1 -13 -15 -14 -15 -9 0 4 14 0 15 -25 8 -20 -6 -29 -5 -30
3 0 7 -4 3 -9 -8 -5 -11 -9 -14 -9 -6 -1 8 -8 11 -20 8 -10 -2 -25 -1 -32 4
-8 4 -18 1 -27 -9 -13 -16 -13 -16 -8 0 4 14 1 16 -18 9 -13 -5 -29 -5 -39 0
-12 7 -17 6 -17 -2 0 -7 -8 -5 -20 6 -20 18 -21 18 -27 -4 -4 -15 -8 -19 -13
-11 -9 14 -80 19 -80 6 0 -6 -5 -5 -11 1 -6 6 -23 8 -45 3 -18 -4 -32 -4 -29
0 2 4 -7 5 -20 2 -14 -2 -22 -9 -19 -16 3 -6 -3 -1 -14 12 -11 12 -22 17 -24
12 -4 -12 -27 -14 -70 -7 -16 2 -28 0 -28 -6 0 -7 -4 -7 -11 0 -8 8 -20 8 -36
2 -13 -5 -22 -5 -19 0 3 4 -6 6 -19 3 -14 -2 -22 -9 -18 -15 4 -6 1 -7 -6 -3
-7 5 -10 15 -7 23 3 8 1 11 -4 8 -6 -3 -10 -14 -10 -23 0 -13 -2 -14 -9 -4
-10 16 -81 22 -81 8 0 -6 -5 -5 -12 2 -7 7 -17 8 -28 2 -9 -5 -22 -5 -30 0 -9
6 -19 3 -28 -8 -11 -14 -13 -14 -9 -2 3 10 -2 16 -14 16 -11 0 -19 -4 -19 -10
0 -5 -12 3 -26 17 -15 15 -23 31 -18 38 4 7 3 9 -3 6 -6 -4 -14 4 -17 18 -4
14 -11 25 -17 25 -6 0 -7 5 -4 10 3 6 2 10 -3 10 -6 0 -13 7 -16 16 -3 8 -2
12 4 9 6 -3 10 -1 10 4 0 6 -7 11 -16 11 -10 0 -14 6 -10 15 3 8 -2 18 -10 23
-9 5 -15 12 -15 15 3 23 0 37 -8 33 -4 -3 -8 11 -7 32 1 35 2 37 38 38 26 1
36 -2 31 -10 -4 -6 1 -5 10 3 14 11 17 11 17 0 0 -9 3 -10 8 -3 4 6 17 10 30
9 13 -1 25 2 28 7 3 5 11 5 17 0 7 -5 32 -8 57 -7z m655 -315 c3 -5 1 -10 -4
-10 -6 0 -11 5 -11 10 0 6 2 10 4 10 3 0 8 -4 11 -10z m-341 -363 c-3 -8 3
-13 16 -13 14 0 19 5 15 16 -3 10 -1 9 9 -3 9 -12 16 -14 21 -7 3 5 12 7 18 3
17 -10 47 -11 53 -1 3 4 14 4 24 -2 13 -7 21 -7 26 1 4 8 9 8 17 0 8 -8 16 -6
29 6 15 13 18 14 13 2 -4 -10 1 -15 15 -15 14 0 19 5 15 16 -3 10 -1 9 9 -3 9
-12 16 -14 21 -7 3 5 12 7 18 3 17 -10 47 -11 53 -1 3 4 14 4 24 -2 13 -7 21
-7 26 1 4 8 9 8 17 0 8 -8 16 -6 29 6 15 13 18 14 13 2 -4 -10 1 -15 15 -15
14 0 19 5 15 16 -3 10 -1 9 9 -3 9 -12 16 -14 21 -7 3 5 12 7 18 3 17 -10 47
-11 53 -1 3 4 14 4 24 -2 13 -7 21 -7 26 1 4 8 9 8 17 0 8 -8 16 -6 29 6 15
13 18 14 13 2 -4 -10 1 -15 15 -15 14 0 19 5 15 16 -3 10 -1 9 9 -3 9 -12 16
-14 21 -7 3 5 12 7 18 3 17 -10 47 -11 53 -1 3 4 14 4 24 -2 13 -7 21 -7 26 1
4 8 9 8 17 0 8 -8 16 -6 29 6 18 16 18 16 12 -1 -6 -16 -4 -17 14 -7 16 9 20
8 18 -4 -1 -8 -6 -18 -11 -22 -4 -4 -5 -2 0 6 5 9 4 12 -3 7 -6 -4 -8 -14 -5
-23 5 -12 2 -15 -9 -10 -12 4 -14 1 -11 -14 3 -11 2 -19 -3 -17 -11 4 -60 -44
-57 -54 2 -4 -6 -10 -17 -13 -11 -4 -20 -11 -20 -16 0 -6 5 -7 12 -3 7 5 8 3
4 -5 -5 -7 -14 -10 -22 -7 -8 3 -13 2 -13 -2 3 -20 -2 -32 -13 -29 -7 1 -12
-4 -11 -10 2 -7 -4 -13 -13 -13 -8 0 -13 -4 -10 -8 2 -4 -9 -18 -25 -31 -16
-13 -26 -27 -23 -32 3 -5 1 -9 -5 -9 -5 0 -12 6 -15 13 -3 6 -3 1 0 -12 5 -19
3 -23 -10 -18 -10 4 -16 1 -16 -9 0 -8 -4 -12 -10 -9 -5 3 -10 1 -10 -5 0 -17
-29 -42 -40 -35 -6 4 -9 1 -8 -7 2 -7 -2 -12 -9 -11 -7 2 -10 -4 -6 -13 3 -8
1 -14 -4 -12 -5 2 -23 -12 -41 -30 -18 -18 -32 -30 -32 -26 0 3 -14 -9 -32
-27 -17 -19 -35 -33 -40 -31 -4 1 -8 -6 -8 -15 0 -14 -2 -15 -9 -4 -7 11 -10
9 -16 -8 -3 -12 -11 -19 -16 -15 -5 3 -7 10 -4 15 3 5 -2 6 -11 2 -12 -4 -15
-3 -10 5 4 7 2 12 -4 12 -6 0 -22 10 -36 23 -14 12 -36 32 -49 43 -13 12 -27
19 -30 15 -4 -3 -5 -1 -3 4 3 10 -36 55 -48 55 -9 0 -64 61 -64 71 0 5 -9 9
-20 9 -14 0 -18 5 -13 17 5 13 2 15 -11 10 -14 -6 -17 -3 -12 8 3 9 2 14 -3
11 -10 -6 -71 58 -71 74 0 6 -5 8 -11 5 -6 -4 -9 0 -7 11 2 10 -3 19 -9 20 -7
1 -18 2 -25 3 -6 0 -8 4 -5 8 4 3 -7 19 -23 35 -16 15 -27 28 -23 28 3 0 -4 9
-17 20 -13 11 -27 20 -33 20 -5 0 -3 8 4 17 10 11 10 14 2 9 -8 -4 -13 -2 -13
4 0 6 -4 8 -10 5 -6 -3 -7 1 -4 9 3 9 9 14 13 12 4 -3 13 -1 21 4 8 5 21 5 31
-1 12 -6 20 -5 24 1 5 8 11 8 20 0 9 -7 16 -6 25 5 15 18 21 19 14 2z"/>
<path d="M5176 2538 c3 -5 10 -6 15 -3 13 9 11 12 -6 12 -8 0 -12 -4 -9 -9z"/>
</g>
</svg>
