<svg width="27" height="27" viewBox="0 0 27 27" fill="none" xmlns="http://www.w3.org/2000/svg">
<g opacity="0.999983">
<path d="M13.3297 16.069C11.2404 16.0666 9.23737 15.2357 7.76 13.7586C6.28264 12.2815 5.4516 10.2787 5.44922 8.18977C5.4516 6.1008 6.28264 4.09807 7.76 2.62095C9.23737 1.14383 11.2404 0.31293 13.3297 0.310547C15.4191 0.31293 17.4221 1.14383 18.8995 2.62095C20.3769 4.09807 21.2079 6.1008 21.2103 8.18977C21.2079 10.2787 20.3769 12.2815 18.8995 13.7586C17.4221 15.2357 15.4191 16.0666 13.3297 16.069ZM13.3297 2.56175C11.8374 2.56354 10.4067 3.15706 9.35145 4.21214C8.29621 5.26721 7.70259 6.69768 7.7008 8.18977C7.70229 9.68195 8.29582 11.1126 9.35113 12.1677C10.4064 13.2229 11.8373 13.8163 13.3297 13.8178C14.8221 13.816 16.2528 13.2225 17.308 12.1674C18.3633 11.1123 18.9569 9.68186 18.9587 8.18977C18.9569 6.69768 18.3633 5.26721 17.308 4.21214C16.2528 3.15706 14.8221 2.56354 13.3297 2.56175Z" fill="#231F20"/>
<path d="M2.29714 26.1994H0.00390625C0.464639 23.4311 1.78394 20.8776 3.7753 18.8999C5.02726 17.6417 6.51632 16.6442 8.15634 15.9651C9.79636 15.2859 11.5548 14.9387 13.3299 14.9434C15.1045 14.9387 16.8624 15.286 18.5019 15.9651C20.1413 16.6442 21.6298 17.6417 22.8811 18.8999C24.8723 20.8773 26.1916 23.4304 26.6525 26.1983H24.3604C23.8402 23.6779 22.4752 21.4105 20.491 19.7711C18.4751 18.1078 15.9436 17.197 13.3299 17.1946C10.7156 17.1969 8.1836 18.1082 6.1676 19.7722C4.18289 21.4113 2.81741 23.6788 2.29714 26.1994Z" fill="#231F20"/>
</g>
</svg>
