<svg width="24" height="24" viewBox="0 0 24 24" fill="none" xmlns="http://www.w3.org/2000/svg">
<g opacity="0.999983">
<path d="M11.9995 14.5318C10.1187 14.5297 8.31547 13.7817 6.9855 12.452C5.65554 11.1222 4.90742 9.31932 4.90527 7.43878C4.90742 5.55824 5.65554 3.75533 6.9855 2.42559C8.31547 1.09584 10.1187 0.347849 11.9995 0.345703C13.8804 0.347849 15.6836 1.09584 17.0135 2.42559C18.3435 3.75533 19.0916 5.55824 19.0938 7.43878C19.0916 9.31932 18.3435 11.1222 17.0135 12.452C15.6836 13.7817 13.8804 14.5297 11.9995 14.5318ZM11.9995 2.3723C10.6561 2.3739 9.36812 2.90821 8.41816 3.85801C7.4682 4.80781 6.93381 6.09556 6.9322 7.43878C6.93354 8.78208 7.46785 10.07 8.41787 11.0198C9.36788 11.9697 10.656 12.5039 11.9995 12.5053C13.343 12.5036 14.6309 11.9693 15.5809 11.0195C16.5308 10.0697 17.0652 8.782 17.0668 7.43878C17.0652 6.09556 16.5308 4.80781 15.5809 3.85801C14.6309 2.90821 13.343 2.3739 11.9995 2.3723Z" fill="#231F20"/>
<path d="M2.06833 23.6506H0.00390625C0.41867 21.1585 1.60633 18.8598 3.39901 17.0794C4.52606 15.9467 5.86655 15.0487 7.34293 14.4373C8.81932 13.826 10.4023 13.5134 12.0003 13.5176C13.5978 13.5134 15.1803 13.826 16.6562 14.4374C18.1321 15.0487 19.4721 15.9467 20.5985 17.0794C22.3911 18.8595 23.5787 21.1578 23.9936 23.6496H21.9302C21.462 21.3806 20.2331 19.3394 18.4469 17.8636C16.6322 16.3663 14.3532 15.5463 12.0003 15.5442C9.64688 15.5463 7.36747 16.3666 5.55262 17.8647C3.76593 19.3402 2.53669 21.3814 2.06833 23.6506Z" fill="#231F20"/>
</g>
</svg>
