<svg width="27" height="28" viewBox="0 0 27 28" fill="none" xmlns="http://www.w3.org/2000/svg">
<g opacity="0.999983">
<path d="M11.9915 24.9412C8.81406 24.9377 5.76774 23.6738 3.52093 21.4269C1.27412 19.18 0.0103254 16.1336 0.00683594 12.9559C0.0103254 9.77833 1.27412 6.73186 3.52093 4.48495C5.76774 2.23804 8.81406 0.974193 11.9915 0.970703C15.1689 0.974509 18.215 2.23846 20.4618 4.4853C22.7085 6.73215 23.9724 9.77843 23.9762 12.9559C23.9724 16.1335 22.7085 19.1797 20.4618 21.4266C18.215 23.6734 15.1689 24.9374 11.9915 24.9412ZM11.9915 3.36775C9.44958 3.37061 7.01255 4.3817 5.21512 6.17922C3.41768 7.97674 2.40663 10.4139 2.40378 12.9559C2.40663 15.498 3.41768 17.9351 5.21512 19.7327C7.01255 21.5302 9.44958 22.5413 11.9915 22.5441C14.5335 22.5413 16.9705 21.5302 18.7679 19.7327C20.5654 17.9351 21.5764 15.498 21.5793 12.9559C21.5764 10.4139 20.5654 7.97674 18.7679 6.17922C16.9705 4.3817 14.5335 3.37061 11.9915 3.36775Z" fill="#231F20"/>
<path d="M18.9971 21.6956L25.0158 27.6019L26.6529 25.924L20.6234 20.1016L18.9971 21.6956Z" fill="#231F20"/>
</g>
</svg>
