<svg width="24" height="24" viewBox="0 0 24 24" fill="none" xmlns="http://www.w3.org/2000/svg">
<g opacity="0.999983">
<path d="M10.7948 21.5905C7.93435 21.5874 5.19197 20.4497 3.16933 18.4269C1.1467 16.4042 0.00900067 13.6617 0.00585938 10.8011C0.00900067 7.94056 1.1467 5.19806 3.16933 3.17533C5.19197 1.15261 7.93435 0.0148602 10.7948 0.0117188C13.6551 0.0151452 16.3973 1.15298 18.4199 3.17565C20.4425 5.19831 21.5803 7.94065 21.5837 10.8011C21.5803 13.6616 20.4425 16.4039 18.4199 18.4266C16.3973 20.4493 13.6551 21.5871 10.7948 21.5905ZM10.7948 2.1696C8.50645 2.17217 6.31258 3.08239 4.69448 4.70056C3.07639 6.31873 2.16621 8.51269 2.16364 10.8011C2.16621 13.0896 3.07639 15.2835 4.69448 16.9017C6.31258 18.5199 8.50645 19.4301 10.7948 19.4327C13.0831 19.4301 15.277 18.5199 16.8951 16.9017C18.5132 15.2835 19.4234 13.0896 19.4259 10.8011C19.4234 8.51269 18.5132 6.31873 16.8951 4.70056C15.277 3.08239 13.0831 2.17217 10.7948 2.1696Z" fill="#231F20"/>
<path d="M17.1016 18.6694L22.5198 23.9864L23.9935 22.4759L18.5656 17.2344L17.1016 18.6694Z" fill="#231F20"/>
</g>
</svg>
