<svg width="31" height="31" viewBox="0 0 31 31" fill="none" xmlns="http://www.w3.org/2000/svg">
<path d="M28.7 15.6602C28.7 14.6852 28.6125 13.7477 28.45 12.8477H15.5V18.1727H22.9C22.575 19.8852 21.6 21.3352 20.1375 22.3102V25.7727H24.6C27.2 23.3727 28.7 19.8477 28.7 15.6602Z" fill="#4285F4"/>
<path d="M15.4996 29.0977C19.2121 29.0977 22.3246 27.8727 24.5996 25.7727L20.1371 22.3102C18.9121 23.1352 17.3496 23.6352 15.4996 23.6352C11.9246 23.6352 8.88711 21.2227 7.79961 17.9727H3.22461V21.5227C5.48711 26.0102 10.1246 29.0977 15.4996 29.0977Z" fill="#34A853"/>
<path d="M7.8 17.9625C7.525 17.1375 7.3625 16.2625 7.3625 15.35C7.3625 14.4375 7.525 13.5625 7.8 12.7375V9.1875H3.225C2.2875 11.0375 1.75 13.125 1.75 15.35C1.75 17.575 2.2875 19.6625 3.225 21.5125L6.7875 18.7375L7.8 17.9625Z" fill="#FBBC05"/>
<path d="M15.4996 7.07266C17.5246 7.07266 19.3246 7.77266 20.7621 9.12266L24.6996 5.18516C22.3121 2.96016 19.2121 1.59766 15.4996 1.59766C10.1246 1.59766 5.48711 4.68516 3.22461 9.18516L7.79961 12.7352C8.88711 9.48516 11.9246 7.07266 15.4996 7.07266Z" fill="#EA4335"/>
</svg>
