<svg width="16" height="16" viewBox="0 0 16 16" fill="none" xmlns="http://www.w3.org/2000/svg">
<g clip-path="url(#clip0_3044_2458)">
<path d="M8 3H9.09138V4.09137H8V3Z" fill="#231F20"/>
<path d="M0.5 15.5H15.5V0.5H0.5V15.5ZM1.5 1.5H14.5V14.5H1.5V1.5Z" fill="#231F20"/>
<path d="M8.91562 11.2206C8.86579 11.3057 8.7946 11.3763 8.7091 11.4255C8.62359 11.4746 8.52674 11.5006 8.42812 11.5008C8.34039 11.5008 8.25387 11.4804 8.17543 11.4411C8.09698 11.4018 8.02877 11.3448 7.97622 11.2745C7.92366 11.2043 7.8882 11.1228 7.87265 11.0364C7.8571 10.9501 7.8619 10.8613 7.88665 10.7772L9.00134 6.98724C9.11347 6.60676 9.07539 6.19777 8.89495 5.84453C8.71452 5.49128 8.40547 5.2207 8.03148 5.08853C7.65748 4.95637 7.24704 4.97268 6.88472 5.13411C6.5224 5.29554 6.23579 5.5898 6.08396 5.95624L5.71777 6.83856L6.64143 7.22187L7.00762 6.33953C7.06133 6.20941 7.16294 6.10489 7.29148 6.04752C7.42002 5.99015 7.56568 5.98432 7.6984 6.03123C7.83111 6.07815 7.94075 6.17422 8.00469 6.29962C8.06863 6.42502 8.08198 6.57019 8.04199 6.70515L6.9273 10.4951C6.8587 10.7283 6.84541 10.9744 6.8885 11.2137C6.93159 11.453 7.02986 11.6789 7.17552 11.8736C7.32118 12.0683 7.51022 12.2264 7.72763 12.3353C7.94504 12.4441 8.18484 12.5008 8.42799 12.5009C8.70141 12.5003 8.96994 12.4284 9.207 12.2922C9.44406 12.156 9.64143 11.9602 9.77956 11.7242L10.2514 10.9144L9.38749 10.4108L8.91562 11.2206Z" fill="#231F20"/>
</g>
<defs>
<clipPath id="clip0_3044_2458">
<rect width="16" height="16" fill="white"/>
</clipPath>
</defs>
</svg>
