<svg width="31" height="31" viewBox="0 0 31 31" fill="none" xmlns="http://www.w3.org/2000/svg">
<g id="Frame">
<path id="Vector" d="M15.5254 3.59249C19.5017 3.59249 19.9684 3.61022 21.54 3.68112C22.9934 3.74611 23.7792 3.98835 24.305 4.19513C25.0022 4.46691 25.4985 4.78596 26.0184 5.30588C26.5384 5.82581 26.8633 6.3221 27.1292 7.01927C27.3301 7.5451 27.5782 8.3309 27.6432 9.78432C27.7141 11.3559 27.7318 11.8227 27.7318 15.7989C27.7318 19.7751 27.7141 20.2419 27.6432 21.8135C27.5782 23.2669 27.336 24.0527 27.1292 24.5785C26.8574 25.2757 26.5384 25.772 26.0184 26.2919C25.4985 26.8118 25.0022 27.1368 24.305 27.4027C23.7792 27.6035 22.9934 27.8517 21.54 27.9167C19.9684 27.9876 19.5017 28.0053 15.5254 28.0053C11.5492 28.0053 11.0824 27.9876 9.51083 27.9167C8.05741 27.8517 7.27162 27.6095 6.74578 27.4027C6.04861 27.1309 5.55232 26.8118 5.03239 26.2919C4.51247 25.772 4.18752 25.2757 3.92165 24.5785C3.72077 24.0527 3.47262 23.2669 3.40763 21.8135C3.33673 20.2419 3.31901 19.7751 3.31901 15.7989C3.31901 11.8227 3.33673 11.3559 3.40763 9.78432C3.47262 8.3309 3.71486 7.5451 3.92165 7.01927C4.19343 6.3221 4.51247 5.82581 5.03239 5.30588C5.55232 4.78596 6.04861 4.461 6.74578 4.19513C7.27162 3.99425 8.05741 3.74611 9.51083 3.68112C11.0824 3.60431 11.5492 3.59249 15.5254 3.59249ZM15.5254 0.910156C11.4842 0.910156 10.9761 0.927881 9.38676 0.99878C7.80336 1.06968 6.72215 1.32373 5.77683 1.69004C4.79607 2.06817 3.96891 2.58219 3.14176 3.40934C2.31461 4.23649 1.8065 5.06955 1.42246 6.04441C1.05615 6.98973 0.8021 8.07093 0.731202 9.66025C0.660303 11.2437 0.642578 11.7518 0.642578 15.793C0.642578 19.8342 0.660303 20.3423 0.731202 21.9316C0.8021 23.5151 1.05615 24.5963 1.42246 25.5475C1.80059 26.5283 2.31461 27.3554 3.14176 28.1826C3.96891 29.0097 4.80197 29.5178 5.77683 29.9018C6.72215 30.2682 7.80336 30.5222 9.39267 30.5931C10.982 30.664 11.4842 30.6817 15.5313 30.6817C19.5785 30.6817 20.0807 30.664 21.67 30.5931C23.2534 30.5222 24.3346 30.2682 25.2858 29.9018C26.2666 29.5237 27.0937 29.0097 27.9209 28.1826C28.748 27.3554 29.2561 26.5223 29.6402 25.5475C30.0065 24.6022 30.2605 23.521 30.3314 21.9316C30.4023 20.3423 30.4201 19.8401 30.4201 15.793C30.4201 11.7459 30.4023 11.2437 30.3314 9.65434C30.2605 8.07093 30.0065 6.98973 29.6402 6.0385C29.2621 5.05774 28.748 4.23058 27.9209 3.40343C27.0937 2.57628 26.2607 2.06817 25.2858 1.68413C24.3405 1.31782 23.2593 1.06377 21.67 0.992872C20.0748 0.927881 19.5666 0.910156 15.5254 0.910156Z" fill="#191617"/>
<path id="Vector_2" d="M15.5261 8.14844C11.3076 8.14844 7.88086 11.5693 7.88086 15.7937C7.88086 20.0181 11.3076 23.4389 15.5261 23.4389C19.7446 23.4389 23.1714 20.0122 23.1714 15.7937C23.1714 11.5752 19.7446 8.14844 15.5261 8.14844ZM15.5261 20.7566C12.7847 20.7566 10.5632 18.5351 10.5632 15.7937C10.5632 13.0523 12.7847 10.8308 15.5261 10.8308C18.2675 10.8308 20.489 13.0523 20.489 15.7937C20.489 18.5351 18.2675 20.7566 15.5261 20.7566Z" fill="#191617"/>
<path id="Vector_3" d="M23.4728 9.62912C24.4582 9.62912 25.2571 8.83027 25.2571 7.84483C25.2571 6.8594 24.4582 6.06055 23.4728 6.06055C22.4873 6.06055 21.6885 6.8594 21.6885 7.84483C21.6885 8.83027 22.4873 9.62912 23.4728 9.62912Z" fill="#191617"/>
</g>
</svg>
