<svg width="24" height="25" viewBox="0 0 24 25" fill="none" xmlns="http://www.w3.org/2000/svg">
<path d="M9.75 3.66992C9.55109 3.66992 9.36032 3.74894 9.21967 3.88959C9.07902 4.03024 9 4.22101 9 4.41992C9 4.61883 9.07902 4.8096 9.21967 4.95025C9.36032 5.0909 9.55109 5.16992 9.75 5.16992H17.25C17.8467 5.16992 18.419 5.40697 18.841 5.82893C19.2629 6.25089 19.5 6.82318 19.5 7.41992V17.9199C19.5 18.5167 19.2629 19.089 18.841 19.5109C18.419 19.9329 17.8467 20.1699 17.25 20.1699H9.75C9.55109 20.1699 9.36032 20.2489 9.21967 20.3896C9.07902 20.5302 9 20.721 9 20.9199C9 21.1188 9.07902 21.3096 9.21967 21.4503C9.36032 21.5909 9.55109 21.6699 9.75 21.6699H17.25C18.2446 21.6699 19.1984 21.2748 19.9016 20.5716C20.6049 19.8683 21 18.9145 21 17.9199V7.41992C21 6.42536 20.6049 5.47153 19.9016 4.76827C19.1984 4.06501 18.2446 3.66992 17.25 3.66992H9.75ZM14.781 12.1389L10.281 7.63892C10.2113 7.56919 10.1285 7.51388 10.0374 7.47614C9.94627 7.4384 9.84862 7.41897 9.75 7.41897C9.65138 7.41897 9.55373 7.4384 9.46262 7.47614C9.37152 7.51388 9.28873 7.56919 9.219 7.63892C9.14927 7.70865 9.09395 7.79144 9.05621 7.88255C9.01848 7.97366 8.99905 8.07131 8.99905 8.16992C8.99905 8.26854 9.01848 8.36619 9.05621 8.4573C9.09395 8.54841 9.14927 8.63119 9.219 8.70092L12.4395 11.9199H2.25C2.05109 11.9199 1.86032 11.9989 1.71967 12.1396C1.57902 12.2802 1.5 12.471 1.5 12.6699C1.5 12.8688 1.57902 13.0596 1.71967 13.2003C1.86032 13.3409 2.05109 13.4199 2.25 13.4199H12.4395L9.219 16.6389C9.07817 16.7798 8.99905 16.9708 8.99905 17.1699C8.99905 17.3691 9.07817 17.5601 9.219 17.7009C9.35983 17.8418 9.55084 17.9209 9.75 17.9209C9.94916 17.9209 10.1402 17.8418 10.281 17.7009L14.781 13.2009C14.8508 13.1313 14.9063 13.0485 14.9441 12.9574C14.9819 12.8663 15.0013 12.7686 15.0013 12.6699C15.0013 12.5713 14.9819 12.4736 14.9441 12.3825C14.9063 12.2914 14.8508 12.2086 14.781 12.1389Z" fill="black"/>
</svg>
