<svg width="14" height="14" viewBox="0 0 14 14" fill="none" xmlns="http://www.w3.org/2000/svg">
<path d="M4.41011 9.962L4.07411 8.9C3.18744 8.68333 2.45311 8.21667 1.87111 7.5C1.28911 6.78333 0.998443 5.95 0.999109 5C0.999109 3.9 1.39078 2.95833 2.17411 2.175C2.95744 1.39167 3.89911 1 4.99911 1C5.94911 1 6.77911 1.28767 7.48911 1.863C8.19978 2.43767 8.66311 3.175 8.87911 4.075L9.96011 4.392C9.80011 3.13867 9.25411 2.09333 8.32211 1.256C7.39011 0.418666 6.28244 0 4.99911 0C3.61444 0 2.43478 0.487333 1.46011 1.462C0.485443 2.43667 -0.00155735 3.616 -0.000890732 5C-0.000890732 6.28333 0.420776 7.391 1.26411 8.323C2.10811 9.255 3.15678 9.80133 4.41011 9.962ZM12.7551 13.788L13.7871 12.756L8.97411 7.962L11.7681 7.039L4.99911 5L7.03811 11.77L7.96011 8.975L12.7551 13.788Z" fill="white"/>
</svg>
