<svg width="21" height="18" viewBox="0 0 21 18" fill="none" xmlns="http://www.w3.org/2000/svg">
<path d="M0.566564 8.60658C0.612976 8.58227 0.659385 8.5599 0.705798 8.53851C1.4967 8.16212 2.29802 7.81006 3.09839 7.45799C3.14196 7.45799 3.2149 7.40742 3.25468 7.38894C3.31625 7.36171 3.37782 7.33447 3.44033 7.30724C3.55873 7.25472 3.67808 7.20317 3.79648 7.15065C4.03422 7.04659 4.27101 6.94156 4.50875 6.83749C4.9833 6.62936 5.45879 6.42025 5.93333 6.21115C6.88336 5.79392 7.83338 5.37669 8.78341 4.95946C9.73344 4.54223 10.6835 4.125 11.6335 3.70777C12.5835 3.29054 13.5336 2.87331 14.4836 2.45608C15.4336 2.03885 16.3837 1.62162 17.3337 1.20439C17.5449 1.112 17.7741 0.971952 17.9996 0.931105C18.1899 0.897065 18.3756 0.82898 18.566 0.792023C18.9287 0.721025 19.3294 0.691854 19.677 0.846492C19.7973 0.899983 19.9072 0.975836 20.001 1.07017C20.4414 1.51853 20.3798 2.25379 20.287 2.88401C19.6372 7.27612 18.9875 11.6672 18.3368 16.0594C18.2477 16.6614 18.1274 17.3227 17.6633 17.703C17.2712 18.0249 16.7133 18.0619 16.2302 17.9247C15.7462 17.7876 15.319 17.4987 14.9004 17.2138C13.1632 16.0331 11.4261 14.8514 9.68893 13.6707C9.27596 13.3897 8.81657 13.024 8.8213 12.5153C8.82415 12.209 9.00221 11.9357 9.18407 11.6925C10.6929 9.67155 12.8724 8.28175 14.4921 6.35316C14.7204 6.08181 14.9004 5.58968 14.5868 5.4331C14.4002 5.33973 14.1852 5.46618 14.0157 5.58775C11.8741 7.11565 9.7325 8.64355 7.59091 10.1705C6.89188 10.6684 6.15971 11.1819 5.31766 11.3045C4.56464 11.4144 3.80594 11.1994 3.07661 10.9787C2.46567 10.7939 1.85569 10.6052 1.24759 10.4097C0.924601 10.3066 0.59119 10.1958 0.341133 9.96137C0.0910749 9.72795 -0.0519503 9.33504 0.0986526 9.02382C0.192424 8.82833 0.376175 8.70482 0.568454 8.60465L0.566564 8.60658Z" fill="black"/>
</svg>
