<svg width="33" height="31" viewBox="0 0 33 31" fill="none" xmlns="http://www.w3.org/2000/svg">
<g id="Frame">
<path id="Vector" d="M17.3944 0.718862C19.043 0.693359 20.6823 0.708472 22.3196 0.693359C22.4187 2.62114 23.1123 4.58482 24.5237 5.94778C25.9325 7.34474 27.925 7.98417 29.8637 8.20048V13.2717C28.0469 13.2122 26.2215 12.8343 24.5729 12.0523C23.8548 11.7274 23.1859 11.3089 22.5312 10.8811C22.5227 14.5609 22.5463 18.2361 22.5076 21.9008C22.4094 23.6614 21.8283 25.4136 20.8041 26.8644C19.1564 29.2795 16.2965 30.8541 13.3591 30.9032C11.5574 31.0061 9.75754 30.5149 8.22225 29.6102C5.67791 28.1102 3.88752 25.3645 3.62676 22.4175C3.59391 21.7934 3.58886 21.1682 3.61164 20.5436C3.8384 18.1474 5.02411 15.8549 6.86457 14.2955C8.95068 12.4792 11.8729 11.614 14.6091 12.1259C14.6346 13.9914 14.5599 15.8549 14.5599 17.7204C13.31 17.3162 11.8493 17.4295 10.7571 18.1879C9.95808 18.7142 9.35421 19.4884 9.03856 20.3916C8.77779 21.0301 8.85242 21.7394 8.86754 22.4175C9.16705 24.4842 11.1549 26.2212 13.2769 26.0332C14.6837 26.0181 16.0319 25.202 16.7651 24.0072C17.0023 23.5888 17.2677 23.1609 17.2819 22.6689C17.4057 20.416 17.3566 18.1729 17.3717 15.9201C17.382 10.8433 17.3557 5.77965 17.3944 0.718862Z" fill="#191617"/>
</g>
</svg>
