<svg width="20" height="21" viewBox="0 0 20 21" fill="none" xmlns="http://www.w3.org/2000/svg">
<g clip-path="url(#clip0_2097_13312)">
<path d="M17.2222 17.3969H2.77772C2.63038 17.3969 2.48907 17.4554 2.38489 17.5596C2.2807 17.6638 2.22217 17.8051 2.22217 17.9524C2.22217 18.0998 2.2807 18.2411 2.38489 18.3453C2.48907 18.4494 2.63038 18.508 2.77772 18.508H17.2222C17.3695 18.508 17.5108 18.4494 17.615 18.3453C17.7192 18.2411 17.7777 18.0998 17.7777 17.9524C17.7777 17.8051 17.7192 17.6638 17.615 17.5596C17.5108 17.4554 17.3695 17.3969 17.2222 17.3969ZM4.89439 8.50797L9.44439 3.96909V15.4413C9.44439 15.5886 9.50292 15.73 9.60711 15.8341C9.71129 15.9383 9.8526 15.9969 9.99995 15.9969C10.1473 15.9969 10.2886 15.9383 10.3928 15.8341C10.497 15.73 10.5555 15.5886 10.5555 15.4413V3.96909L15.1055 8.50797C15.2118 8.59899 15.3485 8.64655 15.4883 8.64115C15.6281 8.63575 15.7608 8.57778 15.8597 8.47884C15.9586 8.3799 16.0166 8.24727 16.022 8.10745C16.0274 7.96763 15.9798 7.83092 15.8888 7.72464L9.99995 1.84131L4.1055 7.73575C4.04475 7.78512 3.99512 7.84676 3.95986 7.91664C3.9246 7.98653 3.9045 8.06307 3.90089 8.14126C3.89727 8.21946 3.91022 8.29753 3.93889 8.37037C3.96756 8.44321 4.01129 8.50916 4.06723 8.56392C4.12317 8.61868 4.19004 8.66099 4.26348 8.6881C4.33691 8.7152 4.41524 8.72648 4.49334 8.7212C4.57144 8.71592 4.64754 8.69419 4.71665 8.65745C4.78577 8.6207 4.84634 8.56976 4.89439 8.50797Z" fill="black"/>
</g>
<defs>
<clipPath id="clip0_2097_13312">
<rect width="20" height="20" fill="white" transform="translate(0 0.174805)"/>
</clipPath>
</defs>
</svg>
